<?xml version="1.0" encoding="UTF-8"?>
<svg version="1.1" xmlns="http://www.w3.org/2000/svg" width="1024" height="1024">
<path d="M0 0 C0.33 0.99 0.66 1.98 1 3 C3.47130918 4.15521502 3.47130918 4.15521502 6 5 C6.33 5.33 6.66 5.66 7 6 C6.95875 7.27875 6.9175 8.5575 6.875 9.875 C6.71548323 13.07284136 6.71548323 13.07284136 8.4375 15.625 C8.953125 16.07875 9.46875 16.5325 10 17 C10.35919321 18.99551782 10.69496569 20.99548879 11 23 C11.66 23.33 12.32 23.66 13 24 C13.4640625 25.423125 13.4640625 25.423125 13.9375 26.875 C14.97151659 29.91622528 15.71280168 30.9207288 18 33 C18 33.66 18 34.32 18 35 C18.99 35.33 19.98 35.66 21 36 C21.12375 36.969375 21.2475 37.93875 21.375 38.9375 C21.58125 39.948125 21.7875 40.95875 22 42 C22.66 42.33 23.32 42.66 24 43 C24.40729228 45.32156597 24.74438677 47.6568787 25 50 C25.66 50 26.32 50 27 50 C27.66 52.64 28.32 55.28 29 58 C29.66 58 30.32 58 31 58 C31.33 60.31 31.66 62.62 32 65 C32.99 65.33 33.98 65.66 35 66 C35.33 68.31 35.66 70.62 36 73 C36.66 73 37.32 73 38 73 C38.33 75.31 38.66 77.62 39 80 C39.99 80 40.98 80 42 80 C42.12375 80.969375 42.2475 81.93875 42.375 82.9375 C42.684375 84.4534375 42.684375 84.4534375 43 86 C43.66 86.33 44.32 86.66 45 87 C45.66666667 89.33333333 46.33333333 91.66666667 47 94 C47.66 94.33 48.32 94.66 49 95 C49.33333333 97 49.66666667 99 50 101 C50.66 101.33 51.32 101.66 52 102 C52.66666667 104.33333333 53.33333333 106.66666667 54 109 C54.66 109.33 55.32 109.66 56 110 C56.40729228 112.32156597 56.74438677 114.6568787 57 117 C57.99 117.33 58.98 117.66 60 118 C60.12375 118.969375 60.2475 119.93875 60.375 120.9375 C60.684375 122.4534375 60.684375 122.4534375 61 124 C61.66 124.33 62.32 124.66 63 125 C63.40729228 127.32156597 63.74438677 129.6568787 64 132 C64.66 132 65.32 132 66 132 C66.433125 133.7015625 66.433125 133.7015625 66.875 135.4375 C67.24625 136.613125 67.6175 137.78875 68 139 C68.66 139.33 69.32 139.66 70 140 C70.40729228 142.32156597 70.74438677 144.6568787 71 147 C71.99 147 72.98 147 74 147 C74.33 149.64 74.66 152.28 75 155 C75.66 155 76.32 155 77 155 C77.33 157.31 77.66 159.62 78 162 C78.66 162 79.32 162 80 162 C80.4125 162.99 80.825 163.98 81.25 165 C82.73489346 168.47889326 84.39873677 171.84251313 86.1328125 175.203125 C87 177 87 177 88 180 C88.99 180 89.98 180 91 180 C91.28875 181.11375 91.5775 182.2275 91.875 183.375 C92.69241329 187.00291092 92.69241329 187.00291092 95 189 C95.125 192.125 95.125 192.125 95 195 C95.99 195.33 96.98 195.66 98 196 C98.33 198.31 98.66 200.62 99 203 C99.99 203 100.98 203 102 203 C102.12375 203.969375 102.2475 204.93875 102.375 205.9375 C102.58125 206.948125 102.7875 207.95875 103 209 C103.66 209.33 104.32 209.66 105 210 C105.67784992 212.33010909 106.34416793 214.66359824 107 217 C107.66 217.66 108.32 218.32 109 219 C109.165 219.845625 109.33 220.69125 109.5 221.5625 C109.665 222.366875 109.83 223.17125 110 224 C110.66 224.33 111.32 224.66 112 225 C112.66666667 227.33333333 113.33333333 229.66666667 114 232 C114.66 232.33 115.32 232.66 116 233 C116.33333333 235 116.66666667 237 117 239 C117.66 239.33 118.32 239.66 119 240 C119.40729228 242.32156597 119.74438677 244.6568787 120 247 C120.99 247.33 121.98 247.66 123 248 C123.33 250.31 123.66 252.62 124 255 C124.66 255 125.32 255 126 255 C126.433125 256.4540625 126.433125 256.4540625 126.875 257.9375 C127.64214682 261.10664203 127.64214682 261.10664203 130 262 C130.59355614 264.64860427 130.74209269 267.29197322 131 270 C131.66 270 132.32 270 133 270 C133.391875 270.928125 133.78375 271.85625 134.1875 272.8125 C136.01724613 277.09358065 137.96540228 281.31887283 139.9140625 285.546875 C141 288 141 288 142 291 C142.66 291.33 143.32 291.66 144 292 C144.144375 292.94875 144.28875 293.8975 144.4375 294.875 C145.05509021 298.30605673 145.61948028 298.7186686 148 301 C148.35613097 302.66194453 148.69208308 304.328451 149 306 C149.66 306.33 150.32 306.66 151 307 C151.49964836 308.66549455 151.99227129 310.33373468 152.43359375 312.015625 C153.33654226 315.17905841 154.57565424 318.03261299 156 321 C156.66 321.33 157.32 321.66 158 322 C158.40729228 324.32156597 158.74438677 326.6568787 159 329 C159.99 329.33 160.98 329.66 162 330 C162.33 332.31 162.66 334.62 163 337 C163.66 337 164.32 337 165 337 C165.33 339.31 165.66 341.62 166 344 C166.99 344 167.98 344 169 344 C169.185625 345.4540625 169.185625 345.4540625 169.375 346.9375 C169.58125 347.948125 169.7875 348.95875 170 350 C170.66 350.33 171.32 350.66 172 351 C172.67784992 353.33010909 173.34416793 355.66359824 174 358 C174.66 358.66 175.32 359.32 176 360 C176.69437747 361.99054876 177.35610218 363.99255385 178 366 C179.51007981 370.79199311 179.51007981 370.79199311 183 374 C183.268125 375.0725 183.53625 376.145 183.8125 377.25 C185.1561582 381.49313114 186.86831224 382.94660443 190 386 C191.1875 388.9375 191.1875 388.9375 192 392 C192.37125 393.0725 192.7425 394.145 193.125 395.25 C194 398 194 398 194 400 C194.99 400.33 195.98 400.66 197 401 C197.185625 402.2065625 197.185625 402.2065625 197.375 403.4375 C197.58125 404.283125 197.7875 405.12875 198 406 C198.66 406.33 199.32 406.66 200 407 C200.66666667 409.33333333 201.33333333 411.66666667 202 414 C202.66 414.33 203.32 414.66 204 415 C204.49964836 416.66549455 204.99227129 418.33373468 205.43359375 420.015625 C206.33654226 423.17905841 207.57565424 426.03261299 209 429 C209.66 429.33 210.32 429.66 211 430 C211.144375 430.94875 211.28875 431.8975 211.4375 432.875 C212.05509021 436.30605673 212.61948028 436.7186686 215 439 C215.35613097 440.66194453 215.69208308 442.328451 216 444 C216.66 444.33 217.32 444.66 218 445 C218.40729228 447.32156597 218.74438677 449.6568787 219 452 C219.66 452 220.32 452 221 452 C221.33 454.31 221.66 456.62 222 459 C222.99 459 223.98 459 225 459 C225.28875 460.11375 225.5775 461.2275 225.875 462.375 C226.69241329 466.00291092 226.69241329 466.00291092 229 468 C229.72045764 469.9812585 230.38001259 471.98504093 231 474 C231.37125 475.0725 231.7425 476.145 232.125 477.25 C233 480 233 480 233 482 C233.66 482 234.32 482 235 482 C235.28875 482.969375 235.5775 483.93875 235.875 484.9375 C236.64214682 488.10664203 236.64214682 488.10664203 239 489 C239.66666667 491.33333333 240.33333333 493.66666667 241 496 C241.66 496.33 242.32 496.66 243 497 C243.33333333 499 243.66666667 501 244 503 C244.66 503.33 245.32 503.66 246 504 C246.49964836 505.66549455 246.99227129 507.33373468 247.43359375 509.015625 C248.33654226 512.17905841 249.57565424 515.03261299 251 518 C251.66 518.33 252.32 518.66 253 519 C253.40729228 521.32156597 253.74438677 523.6568787 254 526 C254.99 526 255.98 526 257 526 C257.66 528.31 258.32 530.62 259 533 C259.33 533 259.66 533 260 533 C260.33 535.64 260.66 538.28 261 541 C261.99 541 262.98 541 264 541 C264.1546875 542.3921875 264.1546875 542.3921875 264.3125 543.8125 C265.04990583 547.23138159 265.61385993 547.71328243 268 550 C268.35613097 551.66194453 268.69208308 553.328451 269 555 C269.66 555.33 270.32 555.66 271 556 C271.7013284 558.32315031 272.36485174 560.65789079 273 563 C273.82342532 565.31980946 273.82342532 565.31980946 275 567 C275.99 567.33 276.98 567.66 278 568 C278 569.98 278 571.96 278 574 C278.99 574.33 279.98 574.66 281 575 C281.33 577.31 281.66 579.62 282 582 C282.99 582.33 283.98 582.66 285 583 C285.33 585.31 285.66 587.62 286 590 C286.66 590 287.32 590 288 590 C288.33 592.31 288.66 594.62 289 597 C289.99 597.33 290.98 597.66 292 598 C292.1546875 599.11375 292.1546875 599.11375 292.3125 600.25 C293.05269611 603.21078443 294.15719597 604.61971146 296 607 C296.34227417 608.33106622 296.67751743 609.66400079 297 611 C297.66 611.33 298.32 611.66 299 612 C299.33333333 614 299.66666667 616 300 618 C300.66 618.33 301.32 618.66 302 619 C302.66666667 621.33333333 303.33333333 623.66666667 304 626 C304.66 626.33 305.32 626.66 306 627 C306.40729228 629.32156597 306.74438677 631.6568787 307 634 C307.99 634.33 308.98 634.66 310 635 C310.185625 636.4540625 310.185625 636.4540625 310.375 637.9375 C310.58125 638.948125 310.7875 639.95875 311 641 C311.66 641.33 312.32 641.66 313 642 C313.40729228 644.32156597 313.74438677 646.6568787 314 649 C314.66 649 315.32 649 316 649 C316.33 651.31 316.66 653.62 317 656 C317.99 656.33 318.98 656.66 320 657 C320.33 659.31 320.66 661.62 321 664 C321.99 664.33 322.98 664.66 324 665 C324.33 667.31 324.66 669.62 325 672 C325.66 672 326.32 672 327 672 C327.33 674.31 327.66 676.62 328 679 C328.66 679 329.32 679 330 679 C330.433125 680.010625 330.86625 681.02125 331.3125 682.0625 C331.58578125 682.69542969 331.8590625 683.32835937 332.140625 683.98046875 C332.70662541 685.31056971 333.25911387 686.64651451 333.796875 687.98828125 C335.08428975 691.67521672 335.08428975 691.67521672 338 694 C338.33333333 696 338.66666667 698 339 700 C339.66 700.33 340.32 700.66 341 701 C341.7013284 703.32315031 342.36485174 705.65789079 343 708 C343.63654342 709.3479743 344.29605388 710.68596724 345 712 C345.33 712.99 345.66 713.98 346 715 C346.66 715.33 347.32 715.66 348 716 C348.7109375 717.7421875 348.7109375 717.7421875 349.375 719.875 C350.65407279 723.54340675 351.8902767 724.69278594 355 727 C355.74259349 729.31029085 356.411438 731.645752 357 734 C357.66 734.99 358.32 735.98 359 737 C359.38499891 738.65549531 359.72793135 740.3222433 360 742 C360.66 742 361.32 742 362 742 C362.28875 743.134375 362.5775 744.26875 362.875 745.4375 C363.24625 746.613125 363.6175 747.78875 364 749 C364.66 749.33 365.32 749.66 366 750 C366.02687279 751.81242052 366.04633715 753.62495233 366.0625 755.4375 C366.07990234 756.95150391 366.07990234 756.95150391 366.09765625 758.49609375 C366 761 366 761 365 762 C362.47403741 762.23653523 359.96892793 762.42173692 357.4375 762.5625 C356.37112305 762.62727539 356.37112305 762.62727539 355.28320312 762.69335938 C353.52238088 762.79971777 351.7612168 762.90038846 350 763 C349.67 763.99 349.34 764.98 349 766 C345.37 766 341.74 766 338 766 C337.67 765.01 337.34 764.02 337 763 C336.38244001 763.00037972 335.76488001 763.00075944 335.12860608 763.00115067 C241.86923211 763.05810672 148.60980159 763.09188958 -179.94569135 762.61044246 C-191.55180741 762.57541554 -203.15792754 762.54230503 -214.7640523 762.51029928 C-230.84241104 762.46590805 -246.92075234 762.41780125 -262.99907994 762.36322176 C-264.58241223 762.35785232 -266.16574453 762.35248578 -267.74907684 762.34712219 C-268.52463062 762.34449282 -269.3001844 762.34186344 -270.09923981 762.33915439 C-275.45670152 762.32120887 -280.8141668 762.30554222 -286.17163849 762.29090881 C-292.56247097 762.2734104 -298.95328168 762.25257642 -305.34408842 762.22732532 C-308.55423693 762.21471846 -311.7643694 762.2040603 -314.97453451 762.19658196 C-339.40220491 762.13775455 -339.40220491 762.13775455 -351 761 C-351 761.66 -351 762.32 -351 763 C-352.65 763.66 -354.3 764.32 -356 765 C-355.11650485 757.42718447 -355.11650485 757.42718447 -354.4375 754.9375 C-353.85362099 752.76074967 -353.85362099 752.76074967 -354.1875 749.5 C-354 746 -354 746 -352.1875 743.5625 C-350 742 -350 742 -347 742 C-347 739.36 -347 736.72 -347 734 C-346.01 734 -345.02 734 -344 734 C-343.938125 732.783125 -343.87625 731.56625 -343.8125 730.3125 C-343.27711496 725.7737134 -341.33945489 724.08899577 -338 721 C-337.35232207 718.42938689 -337.35232207 718.42938689 -337 716 C-336 715 -335 714 -334 713 C-333.27802838 710.39388923 -333.27802838 710.39388923 -333 708 C-332.34 708 -331.68 708 -331 708 C-330.87625 706.865625 -330.7525 705.73125 -330.625 704.5625 C-330.41875 703.386875 -330.2125 702.21125 -330 701 C-329.34 700.67 -328.68 700.34 -328 700 C-327.26924352 697.6859378 -326.59861742 695.35171131 -326 693 C-325.34 693 -324.68 693 -324 693 C-323.67 690.69 -323.34 688.38 -323 686 C-322.34 686 -321.68 686 -321 686 C-320.896875 684.9275 -320.79375 683.855 -320.6875 682.75 C-320.00397898 679.02170354 -319.32532085 677.80976269 -317 675 C-316.29485154 672.85266073 -316.29485154 672.85266073 -316 671 C-315.34 671 -314.68 671 -314 671 C-313.67 668.69 -313.34 666.38 -313 664 C-312.34 664 -311.68 664 -311 664 C-310.896875 662.741875 -310.79375 661.48375 -310.6875 660.1875 C-310.39024315 656.56096643 -309.51634624 655.51634624 -307 653 C-305.85237744 650.34717556 -305.85237744 650.34717556 -304.9375 647.4375 C-303.20833333 642.20833333 -303.20833333 642.20833333 -301 640 C-298.83983104 635.40964096 -297.29956349 630.89835468 -296 626 C-295.34 626 -294.68 626 -294 626 C-293.814375 624.2984375 -293.814375 624.2984375 -293.625 622.5625 C-293.41875 621.386875 -293.2125 620.21125 -293 619 C-292.34 618.67 -291.68 618.34 -291 618 C-290.855625 617.05125 -290.71125 616.1025 -290.5625 615.125 C-289.94490979 611.69394327 -289.38051972 611.2813314 -287 609 C-286.27802838 606.39388923 -286.27802838 606.39388923 -286 604 C-285.34 604 -284.68 604 -284 604 C-283.67 601.69 -283.34 599.38 -283 597 C-282.01 596.67 -281.02 596.34 -280 596 C-279.67 593.69 -279.34 591.38 -279 589 C-278.34 589 -277.68 589 -277 589 C-276.67 586.69 -276.34 584.38 -276 582 C-275.34 582 -274.68 582 -274 582 C-273.896875 580.9275 -273.79375 579.855 -273.6875 578.75 C-273.00397898 575.02170354 -272.32532085 573.80976269 -270 571 C-269.29485154 568.85266073 -269.29485154 568.85266073 -269 567 C-268.34 567 -267.68 567 -267 567 C-266.87625 565.700625 -266.7525 564.40125 -266.625 563.0625 C-266.4140625 560.84765625 -266.4140625 560.84765625 -266 559 C-265.34 558.67 -264.68 558.34 -264 558 C-263.855625 557.05125 -263.71125 556.1025 -263.5625 555.125 C-263 552 -263 552 -261.59375 550.65234375 C-259.48058201 548.46148576 -258.88409083 546.31559601 -257.9375 543.4375 C-256.20833333 538.20833333 -256.20833333 538.20833333 -254 536 C-253.32060826 534.00428677 -252.65438441 532.00405227 -252 530 C-251.34 529.01 -250.68 528.02 -250 527 C-249.835 526.13375 -249.67 525.2675 -249.5 524.375 C-249.335 523.59125 -249.17 522.8075 -249 522 C-248.34 521.67 -247.68 521.34 -247 521 C-246.835 520.01 -246.67 519.02 -246.5 518 C-246.335 517.01 -246.17 516.02 -246 515 C-245.34 514.67 -244.68 514.34 -244 514 C-243.835 513.01 -243.67 512.02 -243.5 511 C-243.335 510.01 -243.17 509.02 -243 508 C-242.34 507.67 -241.68 507.34 -241 507 C-240.26924352 504.6859378 -239.59861742 502.35171131 -239 500 C-238.34 500 -237.68 500 -237 500 C-236.87625 498.865625 -236.7525 497.73125 -236.625 496.5625 C-236.41875 495.386875 -236.2125 494.21125 -236 493 C-235.34 492.67 -234.68 492.34 -234 492 C-233.26924352 489.6859378 -232.59861742 487.35171131 -232 485 C-231.34 485 -230.68 485 -230 485 C-229.67 482.69 -229.34 480.38 -229 478 C-228.34 478 -227.68 478 -227 478 C-226.8453125 476.1128125 -226.8453125 476.1128125 -226.6875 474.1875 C-226.39063732 470.5657753 -225.5209589 469.50850972 -223 467 C-221.88588285 464.44898678 -221.88588285 464.44898678 -221 461.625 C-219.71166477 457.72778593 -218.19358054 454.47026762 -216 451 C-214.00732607 447.32121736 -212.6102464 444.14967549 -212 440 C-211.34 440 -210.68 440 -210 440 C-209.87625 438.865625 -209.7525 437.73125 -209.625 436.5625 C-209.41875 435.386875 -209.2125 434.21125 -209 433 C-208.34 432.67 -207.68 432.34 -207 432 C-206.855625 431.05125 -206.71125 430.1025 -206.5625 429.125 C-205.94490979 425.69394327 -205.38051972 425.2813314 -203 423 C-202.27802838 420.39388923 -202.27802838 420.39388923 -202 418 C-201.34 418 -200.68 418 -200 418 C-199.87625 416.865625 -199.7525 415.73125 -199.625 414.5625 C-199.41875 413.386875 -199.2125 412.21125 -199 411 C-198.34 410.67 -197.68 410.34 -197 410 C-196.26924352 407.6859378 -195.59861742 405.35171131 -195 403 C-194.34 403 -193.68 403 -193 403 C-192.67 400.69 -192.34 398.38 -192 396 C-191.34 396 -190.68 396 -190 396 C-189.87625 394.865625 -189.7525 393.73125 -189.625 392.5625 C-189.41875 391.386875 -189.2125 390.21125 -189 389 C-188.34 388.67 -187.68 388.34 -187 388 C-186.26924352 385.6859378 -185.59861742 383.35171131 -185 381 C-184.34 381 -183.68 381 -183 381 C-182.67 378.69 -182.34 376.38 -182 374 C-181.34 374 -180.68 374 -180 374 C-179.8453125 372.39125 -179.8453125 372.39125 -179.6875 370.75 C-178.97708795 366.87502517 -178.25425731 366.00567642 -176 363 C-175.20977526 361.10768924 -174.48171423 359.18841364 -173.8125 357.25 C-173.46832031 356.26515625 -173.12414062 355.2803125 -172.76953125 354.265625 C-172.51558594 353.51796875 -172.26164063 352.7703125 -172 352 C-171.34 352 -170.68 352 -170 352 C-169.8453125 350.39125 -169.8453125 350.39125 -169.6875 348.75 C-168.98805108 344.93482407 -168.34682318 343.88839776 -166 341 C-164.44118074 337.70249773 -163.13871113 334.70896799 -162.4375 331.125 C-162.293125 330.42375 -162.14875 329.7225 -162 329 C-161.34 328.67 -160.68 328.34 -160 328 C-159.835 327.01 -159.67 326.02 -159.5 325 C-159.335 324.01 -159.17 323.02 -159 322 C-158.34 321.67 -157.68 321.34 -157 321 C-156.26924352 318.6859378 -155.59861742 316.35171131 -155 314 C-154.34 314 -153.68 314 -153 314 C-152.87625 312.865625 -152.7525 311.73125 -152.625 310.5625 C-152.41875 309.386875 -152.2125 308.21125 -152 307 C-151.34 306.67 -150.68 306.34 -150 306 C-149.26924352 303.6859378 -148.59861742 301.35171131 -148 299 C-147.34 299 -146.68 299 -146 299 C-145.67 296.69 -145.34 294.38 -145 292 C-144.34 292 -143.68 292 -143 292 C-142.67 289.69 -142.34 287.38 -142 285 C-141.34 285 -140.68 285 -140 285 C-139.67 282.69 -139.34 280.38 -139 278 C-138.01 277.67 -137.02 277.34 -136 277 C-135.67 274.69 -135.34 272.38 -135 270 C-134.34 270 -133.68 270 -133 270 C-132.8453125 268.39125 -132.8453125 268.39125 -132.6875 266.75 C-132.00397898 263.02170354 -131.32532085 261.80976269 -129 259 C-128.29485154 256.85266073 -128.29485154 256.85266073 -128 255 C-127.34 255 -126.68 255 -126 255 C-125.87625 253.88625 -125.7525 252.7725 -125.625 251.625 C-125 248 -125 248 -123 246 C-122.30899447 244.00827818 -121.64097297 242.00838196 -121 240 C-120.67 239.67 -120.34 239.34 -120 239 C-119.79231771 237.52603261 -119.63283983 236.0450874 -119.5 234.5625 C-119.10958904 230.21917808 -119.10958904 230.21917808 -118 228 C-117.01 228 -116.02 228 -115 228 C-115 225.69 -115 223.38 -115 221 C-114.01 221 -113.02 221 -112 221 C-112 219.02 -112 217.04 -112 215 C-111.01 214.67 -110.02 214.34 -109 214 C-108.814375 212.0509375 -108.814375 212.0509375 -108.625 210.0625 C-108.4140625 207.84765625 -108.4140625 207.84765625 -108 206 C-107.34 205.67 -106.68 205.34 -106 205 C-105.835 204.01 -105.67 203.02 -105.5 202 C-105.335 201.01 -105.17 200.02 -105 199 C-104.34 198.67 -103.68 198.34 -103 198 C-102.67 196.845 -102.34 195.69 -102 194.5 C-101.67 193.345 -101.34 192.19 -101 191 C-100.34 190.67 -99.68 190.34 -99 190 C-98.835 189.01 -98.67 188.02 -98.5 187 C-98.335 186.01 -98.17 185.02 -98 184 C-97.34 183.67 -96.68 183.34 -96 183 C-95.59270772 180.67843403 -95.25561323 178.3431213 -95 176 C-94.34 176 -93.68 176 -93 176 C-92.34 173.69 -91.68 171.38 -91 169 C-90.34 169 -89.68 169 -89 169 C-88.87625 167.865625 -88.7525 166.73125 -88.625 165.5625 C-88.315625 163.7990625 -88.315625 163.7990625 -88 162 C-87.34 161.67 -86.68 161.34 -86 161 C-85.26924352 158.6859378 -84.59861742 156.35171131 -84 154 C-83.34 154 -82.68 154 -82 154 C-81.87625 152.865625 -81.7525 151.73125 -81.625 150.5625 C-81.315625 148.7990625 -81.315625 148.7990625 -81 147 C-80.34 146.67 -79.68 146.34 -79 146 C-78.59270772 143.67843403 -78.25561323 141.3431213 -78 139 C-77.34 139 -76.68 139 -76 139 C-75.67 136.69 -75.34 134.38 -75 132 C-74.01 132 -73.02 132 -72 132 C-71.87625 130.88625 -71.7525 129.7725 -71.625 128.625 C-71 125 -71 125 -69 123 C-68.855625 122.030625 -68.71125 121.06125 -68.5625 120.0625 C-67.94986703 116.7270538 -67.38337898 116.18476406 -65 114 C-64.28552357 111.89667109 -64.28552357 111.89667109 -64 110 C-63.34 110 -62.68 110 -62 110 C-61.87625 108.700625 -61.7525 107.40125 -61.625 106.0625 C-61.4140625 103.84765625 -61.4140625 103.84765625 -61 102 C-60.34 101.67 -59.68 101.34 -59 101 C-58.835 100.01 -58.67 99.02 -58.5 98 C-58.335 97.01 -58.17 96.02 -58 95 C-57.34 94.67 -56.68 94.34 -56 94 C-55.26924352 91.6859378 -54.59861742 89.35171131 -54 87 C-53.34 87 -52.68 87 -52 87 C-51.896875 85.906875 -51.79375 84.81375 -51.6875 83.6875 C-50.97920402 79.88845793 -50.64635355 79.41623585 -48 77 C-48 75.68 -48 74.36 -48 73 C-47 72 -46 71 -45 70 C-44.64386903 68.33805547 -44.30791692 66.671549 -44 65 C-43.34 64.67 -42.68 64.34 -42 64 C-41.835 63.01 -41.67 62.02 -41.5 61 C-41.335 60.01 -41.17 59.02 -41 58 C-40.34 57.67 -39.68 57.34 -39 57 C-38.26924352 54.6859378 -37.59861742 52.35171131 -37 50 C-36.34 50 -35.68 50 -35 50 C-34.67 47.69 -34.34 45.38 -34 43 C-32.515 42.505 -32.515 42.505 -31 42 C-31 39.69 -31 37.38 -31 35 C-30.01 35 -29.02 35 -28 35 C-28 32.69 -28 30.38 -28 28 C-27.01 28 -26.02 28 -25 28 C-24.67 27.01 -24.34 26.02 -24 25 C-23.34 25 -22.68 25 -22 25 C-21.896875 23.741875 -21.79375 22.48375 -21.6875 21.1875 C-21.26239264 17.67574356 -20.68638373 16.35058577 -18 14 C-17.64386903 12.33805547 -17.30791692 10.671549 -17 9 C-16.34 8.67 -15.68 8.34 -15 8 C-14.59270772 5.67843403 -14.25561323 3.3431213 -14 1 C-8.83430559 -0.79217969 -5.48946087 -1.12029814 0 0 Z M-7 59 C-7 60.98 -7 62.96 -7 65 C-8.485 65.495 -8.485 65.495 -10 66 C-10 67.98 -10 69.96 -10 72 C-11.485 72.495 -11.485 72.495 -13 73 C-13 74.98 -13 76.96 -13 79 C-13.99 79.33 -14.98 79.66 -16 80 C-16.33 82.31 -16.66 84.62 -17 87 C-17.99 87.33 -18.98 87.66 -20 88 C-20 89.98 -20 91.96 -20 94 C-21.485 94.495 -21.485 94.495 -23 95 C-23.103125 95.94875 -23.20625 96.8975 -23.3125 97.875 C-24 101 -24 101 -27 103 C-27.2502157 106.08365871 -27.2502157 106.08365871 -27 109 C-28.485 109.495 -28.485 109.495 -30 110 C-30.12375 110.969375 -30.2475 111.93875 -30.375 112.9375 C-30.58125 113.948125 -30.7875 114.95875 -31 116 C-31.66 116.33 -32.32 116.66 -33 117 C-33.144375 117.969375 -33.28875 118.93875 -33.4375 119.9375 C-33.623125 120.948125 -33.80875 121.95875 -34 123 C-35.485 123.99 -35.485 123.99 -37 125 C-37.2502157 128.08365871 -37.2502157 128.08365871 -37 131 C-38.485 131.495 -38.485 131.495 -40 132 C-41.17755913 134.94389782 -41.03348696 135.89953913 -40 139 C-40.99 139 -41.98 139 -43 139 C-43.103125 139.928125 -43.20625 140.85625 -43.3125 141.8125 C-44.05653336 145.26210921 -44.59402898 145.69026782 -47 148 C-48.11680706 150.84979639 -48.11680706 150.84979639 -49 154 C-50.67192429 159.68454259 -50.67192429 159.68454259 -52.625 161.5625 C-54.28728826 162.99373595 -54.28728826 162.99373595 -54.1875 165.6875 C-54.125625 166.450625 -54.06375 167.21375 -54 168 C-54.66 168 -55.32 168 -56 168 C-57.35439668 170.70879335 -57.06501451 173.00933268 -57 176 C-57.99 176 -58.98 176 -60 176 C-60.1546875 177.6396875 -60.1546875 177.6396875 -60.3125 179.3125 C-61.03233653 183.1734414 -61.38953617 183.5030346 -64 186 C-64.25069913 188.62570704 -64.25069913 188.62570704 -64 191 C-64.99 191.33 -65.98 191.66 -67 192 C-67 193.98 -67 195.96 -67 198 C-67.99 198.33 -68.98 198.66 -70 199 C-70.33 201.31 -70.66 203.62 -71 206 C-71.99 206.33 -72.98 206.66 -74 207 C-74 208.98 -74 210.96 -74 213 C-74.99 213.33 -75.98 213.66 -77 214 C-77.12375 214.969375 -77.2475 215.93875 -77.375 216.9375 C-77.58125 217.948125 -77.7875 218.95875 -78 220 C-78.66 220.33 -79.32 220.66 -80 221 C-80.2165625 222.423125 -80.2165625 222.423125 -80.4375 223.875 C-81.05760792 227.32004399 -81.67114334 227.67114334 -84 230 C-84.25069913 232.62570704 -84.25069913 232.62570704 -84 235 C-84.99 235.33 -85.98 235.66 -87 236 C-88.17755913 238.94389782 -88.03348696 239.89953913 -87 243 C-87.99 243 -88.98 243 -90 243 C-90.4125 244.2375 -90.825 245.475 -91.25 246.75 C-92.30938377 249.63922846 -92.93254634 250.93447359 -95.1875 253.125 C-97.34424723 254.95724434 -97.34424723 254.95724434 -97.25 258.25 C-97.1675 259.1575 -97.085 260.065 -97 261 C-97.99 261.33 -98.98 261.66 -100 262 C-100.33 264.31 -100.66 266.62 -101 269 C-101.66 269 -102.32 269 -103 269 C-103.33 271.31 -103.66 273.62 -104 276 C-104.99 276.33 -105.98 276.66 -107 277 C-107.83333333 278.91666667 -107.83333333 278.91666667 -108 281 C-107.67 281.66 -107.34 282.32 -107 283 C-107.99 283.33 -108.98 283.66 -110 284 C-110.33 286.31 -110.66 288.62 -111 291 C-111.66 291 -112.32 291 -113 291 C-113.33 293.31 -113.66 295.62 -114 298 C-114.99 298.33 -115.98 298.66 -117 299 C-117.33 301.31 -117.66 303.62 -118 306 C-118.66 306 -119.32 306 -120 306 C-120.33 308.31 -120.66 310.62 -121 313 C-121.66 313 -122.32 313 -123 313 C-123.33 315.31 -123.66 317.62 -124 320 C-124.66 320 -125.32 320 -126 320 C-126.73080266 321.97746603 -127.39421747 323.98072489 -128 326 C-127.67 326.66 -127.34 327.32 -127 328 C-127.99 328 -128.98 328 -130 328 C-130.433125 329.175625 -130.86625 330.35125 -131.3125 331.5625 C-133.79123845 338.14556815 -136.66315835 344.38683519 -140.01171875 350.5703125 C-141.09412927 353.23141661 -141.18729703 355.15511 -141 358 C-141.99 358.33 -142.98 358.66 -144 359 C-144 360.98 -144 362.96 -144 365 C-144.99 365.33 -145.98 365.66 -147 366 C-147.73080266 367.97746603 -148.39421747 369.98072489 -149 372 C-149.66 372.99 -150.32 373.98 -151 375 C-151.16713569 377.62531524 -151.16713569 377.62531524 -151 380 C-151.99 380.33 -152.98 380.66 -154 381 C-155.11680706 383.84979639 -155.11680706 383.84979639 -156 387 C-156.37125 387.70125 -156.7425 388.4025 -157.125 389.125 C-158.28192364 391.25926907 -158.28192364 391.25926907 -158 395 C-158.66 395 -159.32 395 -160 395 C-160.33 397.31 -160.66 399.62 -161 402 C-161.66 402 -162.32 402 -163 402 C-163.433125 403.7015625 -163.433125 403.7015625 -163.875 405.4375 C-164.24625 406.613125 -164.6175 407.78875 -165 409 C-165.66 409.33 -166.32 409.66 -167 410 C-167.40729228 412.32156597 -167.74438677 414.6568787 -168 417 C-168.66 417 -169.32 417 -170 417 C-170.33 419.31 -170.66 421.62 -171 424 C-171.66 424 -172.32 424 -173 424 C-174.4606285 426.64738916 -175 427.89448334 -175 431 C-175.66 431.33 -176.32 431.66 -177 432 C-177.40729228 434.32156597 -177.74438677 436.6568787 -178 439 C-178.66 439 -179.32 439 -180 439 C-180.391875 440.11375 -180.78375 441.2275 -181.1875 442.375 C-182.770122 446.65873167 -184.82039132 450.60419537 -187.01171875 454.60546875 C-188.10362532 457.25107638 -188.18624643 459.16603404 -188 462 C-188.99 462.33 -189.98 462.66 -191 463 C-191 464.98 -191 466.96 -191 469 C-191.99 469.33 -192.98 469.66 -194 470 C-194.33 472.31 -194.66 474.62 -195 477 C-195.66 477 -196.32 477 -197 477 C-197.33 479.31 -197.66 481.62 -198 484 C-198.99 484.33 -199.98 484.66 -201 485 C-203.6344781 489.26450635 -205.65499928 493.9237556 -205 499 C-205.66 499 -206.32 499 -207 499 C-207.33 501.31 -207.66 503.62 -208 506 C-208.66 506 -209.32 506 -210 506 C-210.28875 507.134375 -210.5775 508.26875 -210.875 509.4375 C-211.24625 510.613125 -211.6175 511.78875 -212 513 C-212.66 513.33 -213.32 513.66 -214 514 C-214.40729228 516.32156597 -214.74438677 518.6568787 -215 521 C-215.66 521 -216.32 521 -217 521 C-218.35439668 523.70879335 -218.06501451 526.00933268 -218 529 C-218.99 529.33 -219.98 529.66 -221 530 C-221.33 531.98 -221.66 533.96 -222 536 C-222.66 536 -223.32 536 -224 536 C-224.33 538.31 -224.66 540.62 -225 543 C-225.66 543 -226.32 543 -227 543 C-227.433125 544.175625 -227.86625 545.35125 -228.3125 546.5625 C-232.1097561 556.66463415 -232.1097561 556.66463415 -235 561 C-235.16713569 563.62531524 -235.16713569 563.62531524 -235 566 C-235.99 566.33 -236.98 566.66 -238 567 C-238.83333333 568.91666667 -238.83333333 568.91666667 -239 571 C-238.67 571.66 -238.34 572.32 -238 573 C-238.99 573.33 -239.98 573.66 -241 574 C-243.6344781 578.26450635 -245.65499928 582.9237556 -245 588 C-245.99 588.33 -246.98 588.66 -248 589 C-248.33 591.31 -248.66 593.62 -249 596 C-249.66 596 -250.32 596 -251 596 C-251.33 598.31 -251.66 600.62 -252 603 C-252.66 603 -253.32 603 -254 603 C-254.33 605.31 -254.66 607.62 -255 610 C-255.66 610 -256.32 610 -257 610 C-258.50930183 613.3863251 -258.50930183 613.3863251 -259 617 C-259.66 617.33 -260.32 617.66 -261 618 C-261.40729228 620.32156597 -261.74438677 622.6568787 -262 625 C-262.66 625 -263.32 625 -264 625 C-264.29003906 625.81404297 -264.29003906 625.81404297 -264.5859375 626.64453125 C-264.97652344 627.71767578 -264.97652344 627.71767578 -265.375 628.8125 C-265.63023437 629.52019531 -265.88546875 630.22789062 -266.1484375 630.95703125 C-267 633 -267 633 -269 636 C-269 637.32 -269 638.64 -269 640 C-269.66 640 -270.32 640 -271 640 C-271.33 642.31 -271.66 644.62 -272 647 C-272.66 647 -273.32 647 -274 647 C-275.35439668 649.70879335 -275.06501451 652.00933268 -275 655 C-275.99 655.33 -276.98 655.66 -278 656 C-278.73080266 657.97746603 -279.39421747 659.98072489 -280 662 C-280.66 662.99 -281.32 663.98 -282 665 C-282.16713569 667.62531524 -282.16713569 667.62531524 -282 670 C-282.99 670.33 -283.98 670.66 -285 671 C-285.71228144 672.98421259 -286.36515933 674.98967123 -287 677 C-288.2811143 679.53790364 -289.61303786 682.0406155 -290.9765625 684.53515625 C-292.09125366 687.21977502 -292.19488083 689.12294351 -292 692 C-292.66 692 -293.32 692 -294 692 C-294.33 694.31 -294.66 696.62 -295 699 C-295.99 699.33 -296.98 699.66 -298 700 C-298.33 702.31 -298.66 704.62 -299 707 C-299.66 707 -300.32 707 -301 707 C-301.33 709.31 -301.66 711.62 -302 714 C-302.99 714.33 -303.98 714.66 -305 715 C-306.02281518 717.09719872 -306.02281518 717.09719872 -306.6875 719.5625 C-307.06455078 720.80193359 -307.06455078 720.80193359 -307.44921875 722.06640625 C-307.63097656 722.70449219 -307.81273437 723.34257813 -308 724 C-260.6714008 724.12851997 -213.34279893 724.25600942 -166.01419341 724.38218227 C-160.38259051 724.39719636 -154.75098763 724.41221867 -149.11938477 724.42724609 C-147.99858458 724.43023671 -146.87778439 724.43322732 -145.72302056 724.43630856 C-127.75200829 724.48427983 -109.78099786 724.53291275 -91.80998807 724.58180541 C-73.26727361 724.63223816 -54.72455724 724.68192471 -36.18183905 724.73096704 C-25.81005151 724.75841878 -15.43826502 724.78618067 -5.06648064 724.81480408 C44.62247332 724.95174325 94.31084739 725.0350307 144 725 C144.33 725.99 144.66 726.98 145 728 C201.76 728 258.52 728 317 728 C316.67 727.34 316.34 726.68 316 726 C315.34 726 314.68 726 314 726 C314.0928125 724.8553125 314.0928125 724.8553125 314.1875 723.6875 C313.95954926 720.42020601 313.27198304 720.18459908 311 718 C310.26480478 716.02416285 309.60927518 714.01822402 309 712 C308.02574804 709.32321863 307.01029093 706.66349428 306 704 C305.01 704 304.02 704 303 704 C303 702.02 303 700.04 303 698 C302.01 697.67 301.02 697.34 300 697 C299.67 694.69 299.34 692.38 299 690 C298.01 689.67 297.02 689.34 296 689 C296 687.02 296 685.04 296 683 C295.01 682.67 294.02 682.34 293 682 C292.814375 680.2984375 292.814375 680.2984375 292.625 678.5625 C292.41875 677.386875 292.2125 676.21125 292 675 C291.34 674.67 290.68 674.34 290 674 C289.26924352 671.6859378 288.59861742 669.35171131 288 667 C287.34 667 286.68 667 286 667 C285.814375 665.2984375 285.814375 665.2984375 285.625 663.5625 C285.41875 662.386875 285.2125 661.21125 285 660 C284.34 659.67 283.68 659.34 283 659 C282.26924352 656.6859378 281.59861742 654.35171131 281 652 C280.34 652 279.68 652 279 652 C278.67 649.69 278.34 647.38 278 645 C277.01 645 276.02 645 275 645 C275.061875 644.071875 275.12375 643.14375 275.1875 642.1875 C274.97051677 638.49878508 274.55565639 638.35906744 272 636 C271.30356015 634.01017187 270.645124 632.00705243 270 630 C267.81135423 624.93233027 265.4964601 619.92357409 263 615 C262.34 615 261.68 615 261 615 C260.814375 613.2984375 260.814375 613.2984375 260.625 611.5625 C260.41875 610.386875 260.2125 609.21125 260 608 C259.34 607.67 258.68 607.34 258 607 C257.26924352 604.6859378 256.59861742 602.35171131 256 600 C255.34 600 254.68 600 254 600 C253.67 597.69 253.34 595.38 253 593 C252.01 593 251.02 593 250 593 C250.20625 592.4225 250.4125 591.845 250.625 591.25 C251.08661261 588.48032433 250.42944945 587.35438733 249 585 C248.34 585 247.68 585 247 585 C246.814375 583.2984375 246.814375 583.2984375 246.625 581.5625 C246.41875 580.386875 246.2125 579.21125 246 578 C245.34 577.67 244.68 577.34 244 577 C243.26924352 574.6859378 242.59861742 572.35171131 242 570 C241.34 570 240.68 570 240 570 C239.87625 569.05125 239.7525 568.1025 239.625 567.125 C239.28312823 563.91332809 239.28312823 563.91332809 237 562 C236.28072705 559.68234271 235.6090107 557.34904126 235 555 C234.34 555 233.68 555 233 555 C232.67 554.01 232.34 553.02 232 552 C231.34 551.67 230.68 551.34 230 551 C229.26924352 548.6859378 228.59861742 546.35171131 228 544 C227.34 544 226.68 544 226 544 C225.67 541.69 225.34 539.38 225 537 C224.01 537 223.02 537 222 537 C222 535.02 222 533.04 222 531 C221.01 530.67 220.02 530.34 219 530 C218.67 527.69 218.34 525.38 218 523 C217.01 522.67 216.02 522.34 215 522 C215.020625 521.05125 215.04125 520.1025 215.0625 519.125 C215.22551826 516.09333717 215.22551826 516.09333717 214 514 C213.34 514 212.68 514 212 514 C211.67 511.69 211.34 509.38 211 507 C210.01 507 209.02 507 208 507 C208.061875 506.071875 208.12375 505.14375 208.1875 504.1875 C207.97051677 500.49878508 207.55565639 500.35906744 205 498 C203.8125 494.8125 203.8125 494.8125 203 492 C202.34 492 201.68 492 201 492 C201 490.02 201 488.04 201 486 C200.01 485.67 199.02 485.34 198 485 C197.67 482.69 197.34 480.38 197 478 C196.01 477.67 195.02 477.34 194 477 C193.87625 475.865625 193.7525 474.73125 193.625 473.5625 C193.315625 471.7990625 193.315625 471.7990625 193 470 C192.34 469.67 191.68 469.34 191 469 C190.26924352 466.6859378 189.59861742 464.35171131 189 462 C188.34 462 187.68 462 187 462 C186.67 459.69 186.34 457.38 186 455 C185.34 455 184.68 455 184 455 C183.87625 453.865625 183.7525 452.73125 183.625 451.5625 C183.315625 449.7990625 183.315625 449.7990625 183 448 C182.34 447.67 181.68 447.34 181 447 C180.33333333 444.66666667 179.66666667 442.33333333 179 440 C178.34 439.67 177.68 439.34 177 439 C176.26924352 436.6859378 175.59861742 434.35171131 175 432 C174.34 432 173.68 432 173 432 C172.9175 431.175 172.835 430.35 172.75 429.5 C171.83552731 425.23246079 170.07776822 421.80763106 168 418 C167.34 418 166.68 418 166 418 C165.67 415.69 165.34 413.38 165 411 C164.01 410.67 163.02 410.34 162 410 C162 408.02 162 406.04 162 404 C161.01 403.67 160.02 403.34 159 403 C158.67 400.69 158.34 398.38 158 396 C157.01 396 156.02 396 155 396 C155.061875 395.071875 155.12375 394.14375 155.1875 393.1875 C154.97228088 389.52877502 154.53671174 389.3337748 152 387 C151.3125 384.3125 151.3125 384.3125 151 382 C150.01 381.67 149.02 381.34 148 381 C147.67 378.36 147.34 375.72 147 373 C146.34 373 145.68 373 145 373 C144.9175 372.113125 144.835 371.22625 144.75 370.3125 C143.90015652 366.55902463 142.65972191 364.74031954 140 362 C139.34 362 138.68 362 138 362 C137.67 359.69 137.34 357.38 137 355 C136.01 354.67 135.02 354.34 134 354 C134 352.02 134 350.04 134 348 C133.01 347.67 132.02 347.34 131 347 C130.87625 345.865625 130.7525 344.73125 130.625 343.5625 C130.315625 341.7990625 130.315625 341.7990625 130 340 C129.34 339.67 128.68 339.34 128 339 C127.32215008 336.66989091 126.65583207 334.33640176 126 332 C125.34 331.34 124.68 330.68 124 330 C123.835 329.154375 123.67 328.30875 123.5 327.4375 C123.335 326.633125 123.17 325.82875 123 325 C122.34 324.67 121.68 324.34 121 324 C120.26924352 321.6859378 119.59861742 319.35171131 119 317 C118.34 317 117.68 317 117 317 C116.87625 316.05125 116.7525 315.1025 116.625 314.125 C116.28312823 310.91332809 116.28312823 310.91332809 114 309 C112.96157435 306.68351201 111.9578025 304.35096976 111 302 C110.34 302 109.68 302 109 302 C109 300.02 109 298.04 109 296 C108.01 295.67 107.02 295.34 106 295 C105.67 292.69 105.34 290.38 105 288 C104.34 288 103.68 288 103 288 C102.67 285.69 102.34 283.38 102 281 C101.01 280.67 100.02 280.34 99 280 C98.87625 278.865625 98.7525 277.73125 98.625 276.5625 C98.41875 275.386875 98.2125 274.21125 98 273 C97.34 272.67 96.68 272.34 96 272 C95.26924352 269.6859378 94.59861742 267.35171131 94 265 C93.34 265 92.68 265 92 265 C91.87625 263.88625 91.7525 262.7725 91.625 261.625 C91.3534187 257.96896323 91.3534187 257.96896323 89 256 C87.97619197 253.67936846 87.11301157 251.32376287 86.27734375 248.9296875 C85.89255859 247.85074219 85.89255859 247.85074219 85.5 246.75 C85.2628125 246.06421875 85.025625 245.3784375 84.78125 244.671875 C84.11732382 242.79991447 84.11732382 242.79991447 82 242 C81.2986716 239.67684969 80.63514826 237.34210921 80 235 C79.02556744 232.72632403 78.04599785 231.05749731 76.5 229.125 C74.68327951 226.55131264 73.8881823 224.00615548 73 221 C72.34 221 71.68 221 71 221 C70.67 218.69 70.34 216.38 70 214 C69.01 213.67 68.02 213.34 67 213 C67 211.02 67 209.04 67 207 C66.01 206.67 65.02 206.34 64 206 C63.67 203.69 63.34 201.38 63 199 C62.01 198.67 61.02 198.34 60 198 C59.67 195.69 59.34 193.38 59 191 C58.01 191 57.02 191 56 191 C56.309375 190.1028125 56.309375 190.1028125 56.625 189.1875 C57.30671915 186.71549154 57.30671915 186.71549154 55 184 C54.34 184 53.68 184 53 184 C52.67 181.36 52.34 178.72 52 176 C51.01 175.67 50.02 175.34 49 175 C49 174.34 49 173.68 49 173 C48.34 172.67 47.68 172.34 47 172 C46.26924352 169.6859378 45.59861742 167.35171131 45 165 C44.34 165 43.68 165 43 165 C42.67 162.69 42.34 160.38 42 158 C41.01 157.67 40.02 157.34 39 157 C39 155.02 39 153.04 39 151 C38.01 150.67 37.02 150.34 36 150 C35.87625 148.865625 35.7525 147.73125 35.625 146.5625 C35.41875 145.386875 35.2125 144.21125 35 143 C34.34 142.67 33.68 142.34 33 142 C32.26924352 139.6859378 31.59861742 137.35171131 31 135 C30.01 135 29.02 135 28 135 C28.20625 134.401875 28.4125 133.80375 28.625 133.1875 C29.30671915 130.71549154 29.30671915 130.71549154 27 128 C26.34 128 25.68 128 25 128 C25.020625 127.05125 25.04125 126.1025 25.0625 125.125 C25.22551826 122.09333717 25.22551826 122.09333717 24 120 C23.34 120 22.68 120 22 120 C21.87625 119.05125 21.7525 118.1025 21.625 117.125 C21.28312823 113.91332809 21.28312823 113.91332809 19 112 C17.96157435 109.68351201 16.9578025 107.35096976 16 105 C15.34 105 14.68 105 14 105 C14.309375 104.1028125 14.309375 104.1028125 14.625 103.1875 C15.30671915 100.71549154 15.30671915 100.71549154 13 98 C12.34 98 11.68 98 11 98 C10.67 95.69 10.34 93.38 10 91 C9.34 91 8.68 91 8 91 C7.67 88.69 7.34 86.38 7 84 C6.01 83.67 5.02 83.34 4 83 C3.67 80.69 3.34 78.38 3 76 C2.01 75.67 1.02 75.34 0 75 C0 73.02 0 71.04 0 69 C-0.99 68.67 -1.98 68.34 -3 68 C-3.103125 66.88625 -3.20625 65.7725 -3.3125 64.625 C-3.539375 63.42875 -3.76625 62.2325 -4 61 C-4.99 60.34 -5.98 59.68 -7 59 Z " fill="#000000" transform="translate(496,156)"/>
<path d="M0 0 C1.61359862 0.00138269 1.61359862 0.00138269 3.25979519 0.00279331 C4.48963634 0.00141865 5.7194775 0.00004398 6.98658657 -0.00137234 C8.36195302 0.00216727 9.73731923 0.00580209 11.1126852 0.00952244 C12.55123804 0.0098043 13.98979102 0.00964659 15.42834377 0.00907993 C19.34552749 0.00879194 23.26268086 0.01468899 27.17985749 0.02165389 C31.26915443 0.02788709 35.358452 0.0284912 39.44775295 0.0296793 C47.19674004 0.03279272 54.94571309 0.04100624 62.69469398 0.05102879 C71.51437815 0.0621896 80.33406298 0.0677003 89.15375245 0.07272422 C107.30144829 0.08318885 125.44913105 0.10078849 143.59681606 0.12304783 C143.59681606 1.44304783 143.59681606 2.76304783 143.59681606 4.12304783 C144.58681606 4.45304783 145.57681606 4.78304783 146.59681606 5.12304783 C135.70681606 5.12304783 124.81681606 5.12304783 113.59681606 5.12304783 C113.59681606 4.13304783 113.59681606 3.14304783 113.59681606 2.12304783 C112.27681606 2.12304783 110.95681606 2.12304783 109.59681606 2.12304783 C109.59681606 3.44304783 109.59681606 4.76304783 109.59681606 6.12304783 C111.57681606 6.61804783 111.57681606 6.61804783 113.59681606 7.12304783 C112.93681606 8.11304783 112.27681606 9.10304783 111.59681606 10.12304783 C108.9612627 10.47657394 108.9612627 10.47657394 105.54783535 10.44584751 C104.25772045 10.44155735 102.96760555 10.43726719 101.63839626 10.43284702 C100.20054141 10.41278481 98.76269054 10.39243514 97.32484341 10.37182713 C95.81718704 10.36112365 94.30952076 10.35174551 92.80184841 10.34359837 C88.70066132 10.31766011 84.59985975 10.27310355 80.49887705 10.22530055 C76.21614683 10.17851327 71.93329999 10.14871394 67.65043545 10.11714268 C59.53656656 10.05473416 51.42291994 9.97696169 43.30924094 9.89372236 C34.07367289 9.79971754 24.83798771 9.72275943 15.60225272 9.64726102 C-3.39975299 9.4915439 -22.40150464 9.31432878 -41.40318394 9.12304783 C-41.40318394 8.46304783 -41.40318394 7.80304783 -41.40318394 7.12304783 C-43.05318394 6.79304783 -44.70318394 6.46304783 -46.40318394 6.12304783 C-46.40318394 7.44304783 -46.40318394 8.76304783 -46.40318394 10.12304783 C-44.75318394 10.12304783 -43.10318394 10.12304783 -41.40318394 10.12304783 C-41.40318394 11.44304783 -41.40318394 12.76304783 -41.40318394 14.12304783 C-42.39318394 14.12304783 -43.38318394 14.12304783 -44.40318394 14.12304783 C-44.40318394 13.46304783 -44.40318394 12.80304783 -44.40318394 12.12304783 C-89.28318394 12.12304783 -134.16318394 12.12304783 -180.40318394 12.12304783 C-180.73318394 12.78304783 -181.06318394 13.44304783 -181.40318394 14.12304783 C-181.73318394 13.13304783 -182.06318394 12.14304783 -182.40318394 11.12304783 C-181.41318394 11.12304783 -180.42318394 11.12304783 -179.40318394 11.12304783 C-179.40318394 9.80304783 -179.40318394 8.48304783 -179.40318394 7.12304783 C-178.41318394 7.12304783 -177.42318394 7.12304783 -176.40318394 7.12304783 C-176.40318394 8.44304783 -176.40318394 9.76304783 -176.40318394 11.12304783 C-174.75318394 11.12304783 -173.10318394 11.12304783 -171.40318394 11.12304783 C-171.73318394 9.80304783 -172.06318394 8.48304783 -172.40318394 7.12304783 C-168.11318394 7.12304783 -163.82318394 7.12304783 -159.40318394 7.12304783 C-159.40318394 8.44304783 -159.40318394 9.76304783 -159.40318394 11.12304783 C-157.75318394 11.12304783 -156.10318394 11.12304783 -154.40318394 11.12304783 C-154.40318394 9.47304783 -154.40318394 7.82304783 -154.40318394 6.12304783 C-156.05318394 6.12304783 -157.70318394 6.12304783 -159.40318394 6.12304783 C-159.07318394 4.80304783 -158.74318394 3.48304783 -158.40318394 2.12304783 C-107.58318394 2.45304783 -56.76318394 2.78304783 -4.40318394 3.12304783 C-4.40318394 4.44304783 -4.40318394 5.76304783 -4.40318394 7.12304783 C-3.08318394 7.12304783 -1.76318394 7.12304783 -0.40318394 7.12304783 C-0.40318394 5.47304783 -0.40318394 3.82304783 -0.40318394 2.12304783 C-1.39318394 1.79304783 -2.38318394 1.46304783 -3.40318394 1.12304783 C-2.40318394 0.12304783 -2.40318394 0.12304783 0 0 Z M-154.40318394 4.12304783 C-153.40318394 6.12304783 -153.40318394 6.12304783 -153.40318394 6.12304783 Z M108.59681606 6.12304783 C109.59681606 8.12304783 109.59681606 8.12304783 109.59681606 8.12304783 Z " fill="#000000" transform="translate(567.4031839370728,684.8769521713257)"/>
<path d="M0 0 C74.745 0.495 74.745 0.495 151 1 C151 2.65 151 4.3 151 6 C141.1 6 131.2 6 121 6 C121 5.01 121 4.02 121 3 C119.35 3 117.7 3 116 3 C116 4.32 116 5.64 116 7 C117.32 7 118.64 7 120 7 C119.67 7.99 119.34 8.98 119 10 C101.18752622 10.0234638 83.37505651 10.04104491 65.56257057 10.05181217 C57.29008082 10.05694669 49.01760073 10.06393452 40.74511719 10.07543945 C33.52646928 10.0854739 26.30782837 10.09187406 19.08917367 10.09408849 C15.27456505 10.09538087 11.45997644 10.0983717 7.6453743 10.10573006 C-19.74292055 10.15621822 -19.74292055 10.15621822 -30.76025391 9.61889648 C-31.46251791 9.58842004 -32.16478191 9.55794359 -32.88832664 9.52654362 C-36.36645192 9.31593859 -39.01862552 8.85203389 -42 7 C-42 8.32 -42 9.64 -42 11 C-40.35 11.33 -38.7 11.66 -37 12 C-37.33 12.99 -37.66 13.98 -38 15 C-38.66 15 -39.32 15 -40 15 C-40 14.34 -40 13.68 -40 13 C-64.42 13 -88.84 13 -114 13 C-114 12.67 -114 12.34 -114 12 C-112.35 12 -110.7 12 -109 12 C-109 11.01 -109 10.02 -109 9 C-111.31 9 -113.62 9 -116 9 C-116.33 7.35 -116.66 5.7 -117 4 C-78.72 4 -40.44 4 -1 4 C-1 5.32 -1 6.64 -1 8 C0.65 8 2.3 8 4 8 C4 6.35 4 4.7 4 3 C2.68 3 1.36 3 0 3 C0 2.01 0 1.02 0 0 Z M-116 5 C-115 7 -115 7 -115 7 Z " fill="#000000" transform="translate(873,677)"/>
<path d="M0 0 C27.22194281 -0.11518765 54.44083205 0.19512673 81.66107178 0.46356201 C87.91726686 0.52494262 94.17347784 0.58465816 100.4296875 0.64453125 C112.6198074 0.76142962 124.80990912 0.88011611 137 1 C137 5.62 137 10.24 137 15 C115.55 15 94.1 15 72 15 C71.505 13.515 71.505 13.515 71 12 C72.32 12 73.64 12 75 12 C75 10.35 75 8.7 75 7 C73.68 7 72.36 7 71 7 C71 8.32 71 9.64 71 11 C64.4 11 57.8 11 51 11 C51 9.68 51 8.36 51 7 C49.35 7 47.7 7 46 7 C46 8.65 46 10.3 46 12 C47.32 12 48.64 12 50 12 C50 12.99 50 13.98 50 15 C33.17 15 16.34 15 -1 15 C-1 14.01 -1 13.02 -1 12 C0.32 12 1.64 12 3 12 C3 10.35 3 8.7 3 7 C1.68 7 0.36 7 -1 7 C-1 8.32 -1 9.64 -1 11 C-3.31 11 -5.62 11 -8 11 C-8 8.69 -8 6.38 -8 4 C-5.36 4 -2.72 4 0 4 C0 2.68 0 1.36 0 0 Z M0 4 C1 6 1 6 1 6 Z M135 8 C136 10 136 10 136 10 Z " fill="#000000" transform="translate(887,896)"/>
<path d="M0 0 C42.9 0 85.8 0 130 0 C129.34 2.31 128.68 4.62 128 7 C127.34 7 126.68 7 126 7 C125.67 8.32 125.34 9.64 125 11 C124.505 10.01 124.505 10.01 124 9 C122.35 9 120.7 9 119 9 C119.33 7.68 119.66 6.36 120 5 C118.02 5 116.04 5 114 5 C114 6.98 114 8.96 114 11 C115.65 11 117.3 11 119 11 C118.67 11.99 118.34 12.98 118 14 C86.32 13.67 54.64 13.34 22 13 C22.33 12.01 22.66 11.02 23 10 C23.99 10 24.98 10 26 10 C26 9.01 26 8.02 26 7 C24.68 7 23.36 7 22 7 C22 7.66 22 8.32 22 9 C14.74 9 7.48 9 0 9 C0 6.03 0 3.06 0 0 Z M122 3 C122 4.32 122 5.64 122 7 C123.32 7 124.64 7 126 7 C126 5.68 126 4.36 126 3 C124.68 3 123.36 3 122 3 Z M21 5 C22 7 22 7 22 7 Z M26 5 C27 7 27 7 27 7 Z M26 10 C27 12 27 12 27 12 Z " fill="#000000" transform="translate(0,892)"/>
<path d="M0 0 C0.66 0 1.32 0 2 0 C3.28112979 5.68821625 2.54504012 9.30401989 0.0625 14.4375 C-0.22818359 15.07365234 -0.51886719 15.70980469 -0.81835938 16.36523438 C-1.53020725 17.91729614 -2.26297893 19.45973279 -3 21 C-3.66 21 -4.32 21 -5 21 C-5 21.66 -5 22.32 -5 23 C-5.99 23.33 -6.98 23.66 -8 24 C-10.0625 22.25 -10.0625 22.25 -12 20 C-11.75 17.75 -11.75 17.75 -11 16 C-10.34 16.33 -9.68 16.66 -9 17 C-8.896875 15.906875 -8.79375 14.81375 -8.6875 13.6875 C-7.98423275 9.91543022 -7.69352251 9.3568322 -5 7 C-4.28552357 4.89667109 -4.28552357 4.89667109 -4 3 C-2.68 2.67 -1.36 2.34 0 2 C0 1.34 0 0.68 0 0 Z " fill="#000000" transform="translate(155,938)"/>
<path d="M0 0 C6.27 0 12.54 0 19 0 C20 5 20 5 18.9375 6.75 C16.24794383 8.48519753 14.19450606 8.73976279 11 9 C7.5703125 8.00390625 7.5703125 8.00390625 4.125 6.5625 C2.97257813 6.08941406 1.82015625 5.61632812 0.6328125 5.12890625 C-0.23601563 4.75636719 -1.10484375 4.38382813 -2 4 C-1.34 2.68 -0.68 1.36 0 0 Z " fill="#000000" transform="translate(949,882)"/>
<path d="M0 0 C4.95 0 9.9 0 15 0 C15 2.31 15 4.62 15 7 C12.36 7 9.72 7 7 7 C7 8.32 7 9.64 7 11 C6.34 11 5.68 11 5 11 C5 8.36 5 5.72 5 3 C3.35 3 1.7 3 0 3 C0 2.01 0 1.02 0 0 Z M5 1 C6 3 6 3 6 3 Z M6 5 C7 7 7 7 7 7 Z " fill="#000000" transform="translate(851,941)"/>
<path d="M0 0 C0.99 0 1.98 0 3 0 C3 0.66 3 1.32 3 2 C3.66 2 4.32 2 5 2 C5.33 1.34 5.66 0.68 6 0 C6.66 1.98 7.32 3.96 8 6 C6.35 6.33 4.7 6.66 3 7 C3.33 10.63 3.66 14.26 4 18 C3.01 18 2.02 18 1 18 C1 17.34 1 16.68 1 16 C0.01 16.33 -0.98 16.66 -2 17 C-2.33 15.35 -2.66 13.7 -3 12 C-1.68 11.67 -0.36 11.34 1 11 C0.67 7.37 0.34 3.74 0 0 Z " fill="#000000" transform="translate(424,561)"/>
<path d="M0 0 C0.33 0 0.66 0 1 0 C1 2.64 1 5.28 1 8 C-0.32 8 -1.64 8 -3 8 C-2.90460938 8.69867188 -2.80921875 9.39734375 -2.7109375 10.1171875 C-2.60007812 11.02726563 -2.48921875 11.93734375 -2.375 12.875 C-2.25898438 13.77992188 -2.14296875 14.68484375 -2.0234375 15.6171875 C-2.01570313 16.40351562 -2.00796875 17.18984375 -2 18 C-2.66 18.66 -3.32 19.32 -4 20 C-4.33 18.68 -4.66 17.36 -5 16 C-5.66 16 -6.32 16 -7 16 C-7.33 16.99 -7.66 17.98 -8 19 C-8.33 16.69 -8.66 14.38 -9 12 C-7.68 12 -6.36 12 -5 12 C-5 9.03 -5 6.06 -5 3 C-3.35 3 -1.7 3 0 3 C0 2.01 0 1.02 0 0 Z M-5 14 C-4 16 -4 16 -4 16 Z " fill="#000000" transform="translate(450,501)"/>
<path d="M0 0 C0.66 0 1.32 0 2 0 C2 0.66 2 1.32 2 2 C3.32 1.67 4.64 1.34 6 1 C6 2.98 6 4.96 6 7 C4.68 7.33 3.36 7.66 2 8 C2.33 11.3 2.66 14.6 3 18 C2.01 18.33 1.02 18.66 0 19 C0 18.34 0 17.68 0 17 C-0.99 17.33 -1.98 17.66 -3 18 C-3.33 16.02 -3.66 14.04 -4 12 C-2.68 11.67 -1.36 11.34 0 11 C-0.08378906 10.28972656 -0.16757812 9.57945312 -0.25390625 8.84765625 C-0.35574219 7.92855469 -0.45757812 7.00945312 -0.5625 6.0625 C-0.66691406 5.14597656 -0.77132813 4.22945313 -0.87890625 3.28515625 C-0.91886719 2.53105469 -0.95882813 1.77695312 -1 1 C-0.67 0.67 -0.34 0.34 0 0 Z M1 2 C2 4 2 4 2 4 Z M1 6 C2 8 2 8 2 8 Z M0 11 C1 13 1 13 1 13 Z M0 15 C1 17 1 17 1 17 Z " fill="#000000" transform="translate(475,412)"/>
<path d="M0 0 C0.33 0 0.66 0 1 0 C1 2.31 1 4.62 1 7 C0.01 7 -0.98 7 -2 7 C-2 10.63 -2 14.26 -2 18 C-2.99 18 -3.98 18 -5 18 C-5 16.68 -5 15.36 -5 14 C-5.66 14 -6.32 14 -7 14 C-7 14.99 -7 15.98 -7 17 C-7.66 17 -8.32 17 -9 17 C-9 14.69 -9 12.38 -9 10 C-7.68 10 -6.36 10 -5 10 C-5 7.69 -5 5.38 -5 3 C-3.35 2.67 -1.7 2.34 0 2 C0 1.34 0 0.68 0 0 Z M-4 4 C-4 4.99 -4 5.98 -4 7 C-3.01 6.67 -2.02 6.34 -1 6 C-1 5.34 -1 4.68 -1 4 C-1.99 4 -2.98 4 -4 4 Z M-5 10 C-4 12 -4 12 -4 12 Z " fill="#000000" transform="translate(520,294)"/>
<path d="M0 0 C0.99 0 1.98 0 3 0 C3 0.99 3 1.98 3 3 C3.66 3 4.32 3 5 3 C5 2.01 5 1.02 5 0 C5.66 0 6.32 0 7 0 C7 2.31 7 4.62 7 7 C6.01 7.495 6.01 7.495 5 8 C5 7.34 5 6.68 5 6 C4.34 6 3.68 6 3 6 C3.33 9.96 3.66 13.92 4 18 C3.01 18 2.02 18 1 18 C1 17.01 1 16.02 1 15 C0.34 15 -0.32 15 -1 15 C-1.33 15.66 -1.66 16.32 -2 17 C-2.33 15.02 -2.66 13.04 -3 11 C-1.68 11.33 -0.36 11.66 1 12 C0.67 8.04 0.34 4.08 0 0 Z " fill="#000000" transform="translate(494,353)"/>
<path d="M0 0 C0.66 0.33 1.32 0.66 2 1 C1.67 1.99 1.34 2.98 1 4 C1.45375 3.505 1.9075 3.01 2.375 2.5 C4 1 4 1 6 1 C6 4.63 6 8.26 6 12 C4.68 12 3.36 12 2 12 C2 11.34 2 10.68 2 10 C1.34 10 0.68 10 0 10 C-0.33 10.66 -0.66 11.32 -1 12 C-1.02687279 10.18757948 -1.04633715 8.37504767 -1.0625 6.5625 C-1.07410156 5.55316406 -1.08570313 4.54382813 -1.09765625 3.50390625 C-1 1 -1 1 0 0 Z " fill="#000000" transform="translate(582,92)"/>
<path d="M0 0 C0.66 0 1.32 0 2 0 C2 0.99 2 1.98 2 3 C2.66 3 3.32 3 4 3 C4.33 2.34 4.66 1.68 5 1 C4.67 2.65 4.34 4.3 4 6 C3.34 6 2.68 6 2 6 C2.33 9.96 2.66 13.92 3 18 C0.69 18 -1.62 18 -4 18 C-3.67 15.36 -3.34 12.72 -3 10 C-2.67 10.66 -2.34 11.32 -2 12 C-1.34 12 -0.68 12 0 12 C0 8.04 0 4.08 0 0 Z M0 15 C1 17 1 17 1 17 Z " fill="#000000" transform="translate(455,472)"/>
<path d="M0 0 C0.66 0 1.32 0 2 0 C2 1.32 2 2.64 2 4 C2.66 4 3.32 4 4 4 C4 3.01 4 2.02 4 1 C4.99 1 5.98 1 7 1 C7 4.3 7 7.6 7 11 C5.35 11.33 3.7 11.66 2 12 C2 11.34 2 10.68 2 10 C1.34 10 0.68 10 0 10 C0 6.7 0 3.4 0 0 Z " fill="#000000" transform="translate(408,609)"/>
<path d="M0 0 C0.66 0 1.32 0 2 0 C2 0.66 2 1.32 2 2 C3.32 2 4.64 2 6 2 C6 3.32 6 4.64 6 6 C4.68 6 3.36 6 2 6 C2 8.97 2 11.94 2 15 C0.68 15 -0.64 15 -2 15 C-2 15.99 -2 16.98 -2 18 C-2.66 17.67 -3.32 17.34 -4 17 C-4 14.69 -4 12.38 -4 10 C-2.68 10 -1.36 10 0 10 C0 6.7 0 3.4 0 0 Z " fill="#000000" transform="translate(505,324)"/>
<path d="M0 0 C2 3 2 3 2 7 C2.66 7.66 3.32 8.32 4 9 C4.26991906 11.68839385 4.08737357 14.29141936 4 17 C3.01 17 2.02 17 1 17 C0.67 16.34 0.34 15.68 0 15 C-0.66 15 -1.32 15 -2 15 C-2.33 15.66 -2.66 16.32 -3 17 C-3 13.37 -3 9.74 -3 6 C-2.01 6 -1.02 6 0 6 C0 4.02 0 2.04 0 0 Z M-1 7 C-1 7.99 -1 8.98 -1 10 C-0.34 10 0.32 10 1 10 C1 9.01 1 8.02 1 7 C0.34 7 -0.32 7 -1 7 Z M-2 10 C-1 12 -1 12 -1 12 Z M1 10 C2 12 2 12 2 12 Z " fill="#000000" transform="translate(461,454)"/>
<path d="M0 0 C0.66 0 1.32 0 2 0 C1.979375 0.94875 1.95875 1.8975 1.9375 2.875 C1.77448174 5.90666283 1.77448174 5.90666283 3 8 C3.07033769 9.87379605 3.0843022 11.75001102 3.0625 13.625 C3.05347656 14.62789063 3.04445313 15.63078125 3.03515625 16.6640625 C3.02355469 17.43492187 3.01195312 18.20578125 3 19 C0.37886292 19 -1.50935112 18.68707555 -4 18 C-4 16.02 -4 14.04 -4 12 C-3.01 11.67 -2.02 11.34 -1 11 C-0.67 7.37 -0.34 3.74 0 0 Z M-1 12 C-1 12.99 -1 13.98 -1 15 C-0.34 15 0.32 15 1 15 C1 14.01 1 13.02 1 12 C0.34 12 -0.32 12 -1 12 Z " fill="#000000" transform="translate(485,382)"/>
<path d="M0 0 C0.99 0 1.98 0 3 0 C3 0.66 3 1.32 3 2 C3.66 2 4.32 2 5 2 C5 1.34 5 0.68 5 0 C5.66 0.33 6.32 0.66 7 1 C6.67 4.63 6.34 8.26 6 12 C5.34 12 4.68 12 4 12 C4 10.68 4 9.36 4 8 C3.34 8 2.68 8 2 8 C2 8.99 2 9.98 2 11 C1.34 11 0.68 11 0 11 C0 7.37 0 3.74 0 0 Z " fill="#000000" transform="translate(561,152)"/>
<path d="M0 0 C2 1.375 2 1.375 4 3 C4 3.66 4 4.32 4 5 C4.66 5.33 5.32 5.66 6 6 C5.67 7.65 5.34 9.3 5 11 C4.01 11 3.02 11 2 11 C2 12.32 2 13.64 2 15 C1.01 15 0.02 15 -1 15 C-1 16.32 -1 17.64 -1 19 C-2.32 18.67 -3.64 18.34 -5 18 C-4.67 16.02 -4.34 14.04 -4 12 C-2.02 12.495 -2.02 12.495 0 13 C0 11.68 0 10.36 0 9 C0.99 9 1.98 9 3 9 C3 7.35 3 5.7 3 4 C2.01 4 1.02 4 0 4 C-0.33 3.01 -0.66 2.02 -1 1 C-0.67 0.67 -0.34 0.34 0 0 Z " fill="#000000" transform="translate(416,14)"/>
<path d="M0 0 C0.66 0 1.32 0 2 0 C2 0.99 2 1.98 2 3 C3.32 2.01 4.64 1.02 6 0 C6.33 3.63 6.66 7.26 7 11 C6.01 11.33 5.02 11.66 4 12 C3.01 11.01 2.02 10.02 1 9 C0.67 9.66 0.34 10.32 0 11 C-0.19406478 9.35492782 -0.38007935 7.70890406 -0.5625 6.0625 C-0.66691406 5.14597656 -0.77132812 4.22945312 -0.87890625 3.28515625 C-0.91886719 2.53105469 -0.95882812 1.77695313 -1 1 C-0.67 0.67 -0.34 0.34 0 0 Z " fill="#000000" transform="translate(548,193)"/>
<path d="M0 0 C0.99 0 1.98 0 3 0 C3 0.66 3 1.32 3 2 C3.99 1.67 4.98 1.34 6 1 C6 4.3 6 7.6 6 11 C4.02 10.34 2.04 9.68 0 9 C-0.87890625 2.84765625 -0.87890625 2.84765625 -1 1 C-0.67 0.67 -0.34 0.34 0 0 Z M1 7 C2 9 2 9 2 9 Z " fill="#000000" transform="translate(538,223)"/>
<path d="M0 0 C0.66 0 1.32 0 2 0 C2 1.32 2 2.64 2 4 C2.66 4 3.32 4 4 4 C4.33 2.68 4.66 1.36 5 0 C5.66 0.33 6.32 0.66 7 1 C6.67 4.3 6.34 7.6 6 11 C5.01 11 4.02 11 3 11 C3 10.34 3 9.68 3 9 C2.34 9 1.68 9 1 9 C0.67 9.66 0.34 10.32 0 11 C0 7.37 0 3.74 0 0 Z " fill="#000000" transform="translate(508,312)"/>
<path d="M0 0 C0.99 0.33 1.98 0.66 3 1 C2.67 1.66 2.34 2.32 2 3 C3.32 2.34 4.64 1.68 6 1 C6 4.66666667 6 8.33333333 6 12 C5.01 11.67 4.02 11.34 3 11 C3 10.34 3 9.68 3 9 C2.34 9 1.68 9 1 9 C0.67 9.66 0.34 10.32 0 11 C0 7.37 0 3.74 0 0 Z " fill="#000000" transform="translate(601,33)"/>
<path d="M0 0 C2.31 0 4.62 0 7 0 C7 3.3 7 6.6 7 10 C6.34 10 5.68 10 5 10 C5 9.34 5 8.68 5 8 C3.35 8.66 1.7 9.32 0 10 C0 6.7 0 3.4 0 0 Z M2 6 C3 8 3 8 3 8 Z M5 6 C6 8 6 8 6 8 Z " fill="#000000" transform="translate(414,591)"/>
<path d="M0 0 C0.99 0.33 1.98 0.66 3 1 C2.67 1.66 2.34 2.32 2 3 C2.99 3 3.98 3 5 3 C5.33 2.01 5.66 1.02 6 0 C6.33 3.3 6.66 6.6 7 10 C4.69 10 2.38 10 0 10 C0 6.7 0 3.4 0 0 Z " fill="#000000" transform="translate(428,550)"/>
<path d="M0 0 C0.99 0 1.98 0 3 0 C3 0.66 3 1.32 3 2 C3.66 2 4.32 2 5 2 C5.33 1.34 5.66 0.68 6 0 C6 3.63 6 7.26 6 11 C5.34 11 4.68 11 4 11 C4 9.68 4 8.36 4 7 C3.34 7 2.68 7 2 7 C1.67 8.32 1.34 9.64 1 11 C0.67 11 0.34 11 0 11 C0 7.37 0 3.74 0 0 Z " fill="#000000" transform="translate(438,520)"/>
<path d="M0 0 C0.99 0.33 1.98 0.66 3 1 C3 1.66 3 2.32 3 3 C3.99 2.67 4.98 2.34 6 2 C6.33 4.97 6.66 7.94 7 11 C6.01 10.67 5.02 10.34 4 10 C2.68 10.33 1.36 10.66 0 11 C0 7.37 0 3.74 0 0 Z " fill="#000000" transform="translate(498,341)"/>
<path d="M0 0 C0.99 0 1.98 0 3 0 C3.33 5.94 3.66 11.88 4 18 C3.01 18 2.02 18 1 18 C1 14.37 1 10.74 1 7 C-0.32 7 -1.64 7 -3 7 C-2.67 5.68 -2.34 4.36 -2 3 C-1.34 3 -0.68 3 0 3 C0 2.01 0 1.02 0 0 Z M1 5 C2 7 2 7 2 7 Z " fill="#000000" transform="translate(522,97)"/>
<path d="M0 0 C2.39763185 2.39763185 2.34280586 3.33273498 2.625 6.625 C2.69976563 7.44226562 2.77453125 8.25953125 2.8515625 9.1015625 C2.92503906 10.04128906 2.92503906 10.04128906 3 11 C0.69 11 -1.62 11 -4 11 C-4 7.7 -4 4.4 -4 1 C-3.34 1 -2.68 1 -2 1 C-2 1.66 -2 2.32 -2 3 C-1.34 3 -0.68 3 0 3 C0 2.01 0 1.02 0 0 Z M-3 3 C-2 5 -2 5 -2 5 Z " fill="#000000" transform="translate(602,44)"/>
<path d="M0 0 C0.66 0 1.32 0 2 0 C2 1.98 2 3.96 2 6 C1.01 6 0.02 6 -1 6 C-1 7.32 -1 8.64 -1 10 C-2.32 10 -3.64 10 -5 10 C-4.67 11.32 -4.34 12.64 -4 14 C-5.32 14 -6.64 14 -8 14 C-8 12.02 -8 10.04 -8 8 C-6.68 8 -5.36 8 -4 8 C-4 6.68 -4 5.36 -4 4 C-2.68 4 -1.36 4 0 4 C0 2.68 0 1.36 0 0 Z " fill="#000000" transform="translate(895,1004)"/>
<path d="M0 0 C0.99 0 1.98 0 3 0 C3 0.66 3 1.32 3 2 C3.99 1.67 4.98 1.34 6 1 C6.33 3.97 6.66 6.94 7 10 C6.01 9.67 5.02 9.34 4 9 C2.68 9.33 1.36 9.66 0 10 C0 6.7 0 3.4 0 0 Z M1 2 C1.66 2.66 2.32 3.32 3 4 C3 3.34 3 2.68 3 2 C2.34 2 1.68 2 1 2 Z " fill="#000000" transform="translate(551,182)"/>
<path d="M0 0 C1.485 0.99 1.485 0.99 3 2 C3.66 2 4.32 2 5 2 C5.33 1.34 5.66 0.68 6 0 C6 3.63 6 7.26 6 11 C5.34 11 4.68 11 4 11 C4 9.68 4 8.36 4 7 C3.34 7 2.68 7 2 7 C1.67 8.32 1.34 9.64 1 11 C0.34 10.67 -0.32 10.34 -1 10 C-0.67 6.7 -0.34 3.4 0 0 Z " fill="#000000" transform="translate(608,15)"/>
<path d="M0 0 C0.33 0.66 0.66 1.32 1 2 C1.66 2 2.32 2 3 2 C3.33 1.34 3.66 0.68 4 0 C4.33 3.3 4.66 6.6 5 10 C4.01 10.33 3.02 10.66 2 11 C2 10.01 2 9.02 2 8 C1.34 8 0.68 8 0 8 C0 8.99 0 9.98 0 11 C-0.66 10.67 -1.32 10.34 -2 10 C-1.67 7.36 -1.34 4.72 -1 2 C-1.66 1.67 -2.32 1.34 -3 1 C-2.01 0.67 -1.02 0.34 0 0 Z " fill="#000000" transform="translate(400,639)"/>
<path d="M0 0 C0.66 0 1.32 0 2 0 C2 1.32 2 2.64 2 4 C2.66 4 3.32 4 4 4 C4 3.01 4 2.02 4 1 C4.99 1.33 5.98 1.66 7 2 C7 4.64 7 7.28 7 10 C4.66666667 10 2.33333333 10 0 10 C0 6.7 0 3.4 0 0 Z " fill="#000000" transform="translate(578,104)"/>
<path d="M0 0 C2.31 0 4.62 0 7 0 C6.67 3.3 6.34 6.6 6 10 C5.34 10 4.68 10 4 10 C4 9.34 4 8.68 4 8 C2.68 8 1.36 8 0 8 C0 5.36 0 2.72 0 0 Z M4 6 C5 8 5 8 5 8 Z " fill="#000000" transform="translate(611,4)"/>
<path d="M0 0 C0 3.3 0 6.6 0 10 C-0.66 10 -1.32 10 -2 10 C-2 9.34 -2 8.68 -2 8 C-2.66 8 -3.32 8 -4 8 C-4.33 8.66 -4.66 9.32 -5 10 C-6 9 -6 9 -6.09765625 7.15234375 C-6.06510417 5.1015625 -6.03255208 3.05078125 -6 1 C-1.125 0 -1.125 0 0 0 Z M-2 6 C-1 8 -1 8 -1 8 Z " fill="#000000" transform="translate(401,651)"/>
<path d="M0 0 C0.66 0.33 1.32 0.66 2 1 C2 3.31 2 5.62 2 8 C1.01 8 0.02 8 -1 8 C-1 8.66 -1 9.32 -1 10 C-1.99 10.33 -2.98 10.66 -4 11 C-4 7.7 -4 4.4 -4 1 C-3.34 1 -2.68 1 -2 1 C-2 1.66 -2 2.32 -2 3 C-1.34 3 -0.68 3 0 3 C0 2.01 0 1.02 0 0 Z " fill="#000000" transform="translate(482,401)"/>
<path d="M0 0 C0.33 0 0.66 0 1 0 C1.33 3.3 1.66 6.6 2 10 C1.01 10.33 0.02 10.66 -1 11 C-1 10.01 -1 9.02 -1 8 C-2.32 8.99 -3.64 9.98 -5 11 C-5 8.03 -5 5.06 -5 2 C-3.35 2 -1.7 2 0 2 C0 1.34 0 0.68 0 0 Z " fill="#000000" transform="translate(573,134)"/>
<path d="M0 0 C0.66 0.33 1.32 0.66 2 1 C2 3.31 2 5.62 2 8 C-0.64 8 -3.28 8 -6 8 C-6 9.32 -6 10.64 -6 12 C-6.66 12 -7.32 12 -8 12 C-8 9.69 -8 7.38 -8 5 C-5.36 5 -2.72 5 0 5 C-0.2784375 4.0409375 -0.2784375 4.0409375 -0.5625 3.0625 C-0.706875 2.381875 -0.85125 1.70125 -1 1 C-0.67 0.67 -0.34 0.34 0 0 Z M-7 6 C-6 8 -6 8 -6 8 Z " fill="#000000" transform="translate(455,92)"/>
<path d="M0 0 C0.33 1.32 0.66 2.64 1 4 C1.66 4 2.32 4 3 4 C3 3.01 3 2.02 3 1 C3.66 1 4.32 1 5 1 C5.33 3.31 5.66 5.62 6 8 C4.35 8 2.7 8 1 8 C1 9.32 1 10.64 1 12 C0.01 11.67 -0.98 11.34 -2 11 C-1.85957123 9.35369672 -1.71250671 7.70795821 -1.5625 6.0625 C-1.48128906 5.14597656 -1.40007812 4.22945312 -1.31640625 3.28515625 C-1 1 -1 1 0 0 Z " fill="#000000" transform="translate(386,679)"/>
<path d="M0 0 C0.99 0 1.98 0 3 0 C3 0.66 3 1.32 3 2 C3.66 2 4.32 2 5 2 C5.33 1.34 5.66 0.68 6 0 C6.33 3.3 6.66 6.6 7 10 C5.35 9.67 3.7 9.34 2 9 C1.67 9.66 1.34 10.32 1 11 C0.67 7.37 0.34 3.74 0 0 Z M2 2 C3 4 3 4 3 4 Z " fill="#000000" transform="translate(571,123)"/>
<path d="M0 0 C0.99 0 1.98 0 3 0 C3 1.32 3 2.64 3 4 C5.64 4 8.28 4 11 4 C10.74438677 6.3431213 10.40729228 8.67843403 10 11 C9.01 11.495 9.01 11.495 8 12 C8 10.35 8 8.7 8 7 C5.36 7 2.72 7 0 7 C0 4.69 0 2.38 0 0 Z M8 5 C9 7 9 7 9 7 Z " fill="#000000" transform="translate(512,111)"/>
<path d="M0 0 C0.99 0 1.98 0 3 0 C3.33 2.31 3.66 4.62 4 7 C1.36 7 -1.28 7 -4 7 C-4 8.32 -4 9.64 -4 11 C-4.66 11 -5.32 11 -6 11 C-6 8.69 -6 6.38 -6 4 C-4.02 4 -2.04 4 0 4 C0 2.68 0 1.36 0 0 Z M0 4 C1 6 1 6 1 6 Z " fill="#000000" transform="translate(450,85)"/>
<path d="M0 0 C0.99 0.33 1.98 0.66 3 1 C3 2.98 3 4.96 3 7 C0.36 7 -2.28 7 -5 7 C-5 8.32 -5 9.64 -5 11 C-5.66 11 -6.32 11 -7 11 C-7.33 8.69 -7.66 6.38 -8 4 C-5.36 4 -2.72 4 0 4 C0 2.68 0 1.36 0 0 Z M-6 5 C-5 7 -5 7 -5 7 Z " fill="#000000" transform="translate(412,7)"/>
<path d="M0 0 C0.33 1.32 0.66 2.64 1 4 C1.66 4 2.32 4 3 4 C3 3.01 3 2.02 3 1 C3.66 1 4.32 1 5 1 C5 3.31 5 5.62 5 8 C3.68 8 2.36 8 1 8 C1 9.98 1 11.96 1 14 C-1.18841354 10.71737969 -1.24854665 9.68209102 -1.1875 5.875 C-1.18105469 4.98554687 -1.17460937 4.09609375 -1.16796875 3.1796875 C-1 1 -1 1 0 0 Z " fill="#000000" transform="translate(436,531)"/>
<path d="M0 0 C1.485 0.99 1.485 0.99 3 2 C3.66 2 4.32 2 5 2 C5.33 1.34 5.66 0.68 6 0 C6 3.63 6 7.26 6 11 C5.34 11 4.68 11 4 11 C4 9.68 4 8.36 4 7 C3.34 7 2.68 7 2 7 C1.34 8.32 0.68 9.64 0 11 C0 7.37 0 3.74 0 0 Z M1 5 C2 7 2 7 2 7 Z M4 5 C5 7 5 7 5 7 Z " fill="#000000" transform="translate(488,372)"/>
<path d="M0 0 C0.33 0 0.66 0 1 0 C1 2.64 1 5.28 1 8 C-1.31 8 -3.62 8 -6 8 C-5.67 9.32 -5.34 10.64 -5 12 C-6.32 12 -7.64 12 -9 12 C-9 10.02 -9 8.04 -9 6 C-6.36 6 -3.72 6 -1 6 C-1.020625 5.195625 -1.04125 4.39125 -1.0625 3.5625 C-1 1 -1 1 0 0 Z " fill="#000000" transform="translate(459,99)"/>
<path d="M0 0 C0.598125 0.185625 1.19625 0.37125 1.8125 0.5625 C4.16408762 1.22093687 4.16408762 1.22093687 7 0 C7.33 3.3 7.66 6.6 8 10 C7.01 10 6.02 10 5 10 C5 9.34 5 8.68 5 8 C4.01 7.67 3.02 7.34 2 7 C2 5.35 2 3.7 2 2 C1.34 2 0.68 2 0 2 C0 1.34 0 0.68 0 0 Z " fill="#000000" transform="translate(447,491)"/>
<path d="M0 0 C0.66 0 1.32 0 2 0 C2 1.98 2 3.96 2 6 C-0.64 6 -3.28 6 -6 6 C-6 7.32 -6 8.64 -6 10 C-6.66 10 -7.32 10 -8 10 C-8 7.69 -8 5.38 -8 3 C-5.36 3 -2.72 3 0 3 C0 2.01 0 1.02 0 0 Z M0 3 C1 5 1 5 1 5 Z " fill="#000000" transform="translate(469,123)"/>
<path d="M0 0 C0.598125 0.185625 1.19625 0.37125 1.8125 0.5625 C4.16408762 1.22093687 4.16408762 1.22093687 7 0 C7.33 3.3 7.66 6.6 8 10 C7.01 10 6.02 10 5 10 C5 9.34 5 8.68 5 8 C4.01 8.33 3.02 8.66 2 9 C1.855625 7.88625 1.71125 6.7725 1.5625 5.625 C1.21627965 2.17857953 1.21627965 2.17857953 0 0 Z M5 6 C6 8 6 8 6 8 Z " fill="#000000" transform="translate(590,64)"/>
<path d="M0 0 C1.32 0.33 2.64 0.66 4 1 C4 2.65 4 4.3 4 6 C1.36 6 -1.28 6 -4 6 C-4 7.98 -4 9.96 -4 12 C-6 10 -6 10 -6.125 6.875 C-6.08375 5.92625 -6.0425 4.9775 -6 4 C-4.02 4 -2.04 4 0 4 C0 2.68 0 1.36 0 0 Z " fill="#000000" transform="translate(464,115)"/>
<path d="M0 0 C0.33 0 0.66 0 1 0 C1 3.63 1 7.26 1 11 C0.01 11 -0.98 11 -2 11 C-1.67 10.01 -1.34 9.02 -1 8 C-1.66 8 -2.32 8 -3 8 C-3.33 8.99 -3.66 9.98 -4 11 C-4 8.36 -4 5.72 -4 3 C-2.68 2.67 -1.36 2.34 0 2 C0 1.34 0 0.68 0 0 Z " fill="#000000" transform="translate(593,74)"/>
<path d="M0 0 C0 3.63 0 7.26 0 11 C-0.66 11 -1.32 11 -2 11 C-2 10.01 -2 9.02 -2 8 C-2.66 8 -3.32 8 -4 8 C-4.33 8.99 -4.66 9.98 -5 11 C-5 8.36 -5 5.72 -5 3 C-4.34 3 -3.68 3 -3 3 C-3 2.34 -3 1.68 -3 1 C-1 0 -1 0 0 0 Z M-2 6 C-1 8 -1 8 -1 8 Z " fill="#000000" transform="translate(474,431)"/>
<path d="M0 0 C0 2.64 0 5.28 0 8 C-2.64 8 -5.28 8 -8 8 C-8 9.32 -8 10.64 -8 12 C-8.66 12 -9.32 12 -10 12 C-10 10.02 -10 8.04 -10 6 C-7.36 6 -4.72 6 -2 6 C-2.33 4.35 -2.66 2.7 -3 1 C-1 0 -1 0 0 0 Z " fill="#000000" transform="translate(869,947)"/>
<path d="M0 0 C0.66 0 1.32 0 2 0 C2 0.99 2 1.98 2 3 C2.66 3 3.32 3 4 3 C4.33 2.34 4.66 1.68 5 1 C5 3.64 5 6.28 5 9 C3.68 9 2.36 9 1 9 C0.67 9.66 0.34 10.32 0 11 C0 7.37 0 3.74 0 0 Z " fill="#000000" transform="translate(405,620)"/>
<path d="M0 0 C0.66 0.33 1.32 0.66 2 1 C1.67 4.63 1.34 8.26 1 12 C0.34 12 -0.32 12 -1 12 C-1 10.68 -1 9.36 -1 8 C-1.66 8 -2.32 8 -3 8 C-3.33 8.99 -3.66 9.98 -4 11 C-4 8.36 -4 5.72 -4 3 C-2.68 3 -1.36 3 0 3 C0 2.01 0 1.02 0 0 Z " fill="#000000" transform="translate(423,579)"/>
<path d="M0 0 C0.33 0 0.66 0 1 0 C1 3.63 1 7.26 1 11 C0.34 11 -0.32 11 -1 11 C-1 10.01 -1 9.02 -1 8 C-1.66 8 -2.32 8 -3 8 C-3.33 8.66 -3.66 9.32 -4 10 C-4 7.36 -4 4.72 -4 2 C-2.68 2 -1.36 2 0 2 C0 1.34 0 0.68 0 0 Z " fill="#000000" transform="translate(546,212)"/>
<path d="M0 0 C0.99 0.33 1.98 0.66 3 1 C2.67 2.98 2.34 4.96 2 7 C0.02 7 -1.96 7 -4 7 C-4 8.65 -4 10.3 -4 12 C-4.99 12 -5.98 12 -7 12 C-6.67 9.69 -6.34 7.38 -6 5 C-4.02 5 -2.04 5 0 5 C0 3.35 0 1.7 0 0 Z " fill="#000000" transform="translate(461,107)"/>
<path d="M0 0 C6.15234375 0.5859375 6.15234375 0.5859375 8 1 C8.33 1.66 8.66 2.32 9 3 C7 5 7 5 3.5 5.3125 C2.345 5.209375 1.19 5.10625 0 5 C-0.66 4.01 -1.32 3.02 -2 2 C-1.34 2 -0.68 2 0 2 C0 1.34 0 0.68 0 0 Z " fill="#000000" transform="translate(883,882)"/>
<path d="M0 0 C0.66 0 1.32 0 2 0 C2 1.98 2 3.96 2 6 C1.01 6 0.02 6 -1 6 C-1 7.32 -1 8.64 -1 10 C-1.99 10 -2.98 10 -4 10 C-4.33 10.66 -4.66 11.32 -5 12 C-5.66 10.35 -6.32 8.7 -7 7 C-5.68 7 -4.36 7 -3 7 C-3 5.68 -3 4.36 -3 3 C-2.01 3 -1.02 3 0 3 C0 2.01 0 1.02 0 0 Z M0 3 C1 5 1 5 1 5 Z M-3 7 C-2 9 -2 9 -2 9 Z " fill="#000000" transform="translate(898,1012)"/>
<path d="M0 0 C0.66 0 1.32 0 2 0 C2 1.32 2 2.64 2 4 C3.65 4 5.3 4 7 4 C6.67 6.31 6.34 8.62 6 11 C5.01 11.33 4.02 11.66 3 12 C3 10.35 3 8.7 3 7 C2.01 7 1.02 7 0 7 C0 4.69 0 2.38 0 0 Z M1 4 C2 6 2 6 2 6 Z M4 9 C5 11 5 11 5 11 Z " fill="#000000" transform="translate(120,984)"/>
<path d="M0 0 C0.99 0 1.98 0 3 0 C3 1.32 3 2.64 3 4 C4.32 4.33 5.64 4.66 7 5 C7 6.65 7 8.3 7 10 C6.01 10.33 5.02 10.66 4 11 C4 9.35 4 7.7 4 6 C2.68 6 1.36 6 0 6 C0 4.02 0 2.04 0 0 Z " fill="#000000" transform="translate(123,977)"/>
<path d="M0 0 C2.31 0 4.62 0 7 0 C6.67 0.99 6.34 1.98 6 3 C5.34 3 4.68 3 4 3 C4.33 4.65 4.66 6.3 5 8 C5.66 8 6.32 8 7 8 C6.34 9.32 5.68 10.64 5 12 C4.34 11.67 3.68 11.34 3 11 C3 8.69 3 6.38 3 4 C2.01 4 1.02 4 0 4 C0 2.68 0 1.36 0 0 Z M1 1 C2 3 2 3 2 3 Z M4 8 C5 10 5 10 5 10 Z " fill="#000000" transform="translate(433,70)"/>
<path d="M0 0 C0.99 0 1.98 0 3 0 C3 1.98 3 3.96 3 6 C0.69 6 -1.62 6 -4 6 C-4 7.65 -4 9.3 -4 11 C-4.99 10.67 -5.98 10.34 -7 10 C-6.67 8.02 -6.34 6.04 -6 4 C-4.02 4 -2.04 4 0 4 C0 2.68 0 1.36 0 0 Z " fill="#000000" transform="translate(408,0)"/>
<path d="M0 0 C1.65 0 3.3 0 5 0 C5.33 1.98 5.66 3.96 6 6 C3.92446352 6.5534764 2.15634036 7 0 7 C0 4.69 0 2.38 0 0 Z " fill="#000000" transform="translate(416,34)"/>
<path d="M0 0 C0.99 0.33 1.98 0.66 3 1 C2.67 2.32 2.34 3.64 2 5 C3.32 5 4.64 5 6 5 C6 7.31 6 9.62 6 12 C5.01 11.67 4.02 11.34 3 11 C3.33 9.68 3.66 8.36 4 7 C2.68 7 1.36 7 0 7 C0 4.69 0 2.38 0 0 Z " fill="#000000" transform="translate(127,969)"/>
<path d="M0 0 C8.57142857 -0.28571429 8.57142857 -0.28571429 12 2 C12 2.33 12 2.66 12 3 C8.37 3.33 4.74 3.66 1 4 C0.67 2.68 0.34 1.36 0 0 Z M1 1 C2 3 2 3 2 3 Z " fill="#000000" transform="translate(862,959)"/>
<path d="M0 0 C0.66 0 1.32 0 2 0 C2 1.98 2 3.96 2 6 C0.02 6 -1.96 6 -4 6 C-4.33 7.32 -4.66 8.64 -5 10 C-5.66 8.02 -6.32 6.04 -7 4 C-4.69 4 -2.38 4 0 4 C0 2.68 0 1.36 0 0 Z " fill="#000000" transform="translate(447,78)"/>
<path d="M0 0 C2.31 0 4.62 0 7 0 C7 1.98 7 3.96 7 6 C6.34 6 5.68 6 5 6 C5 5.34 5 4.68 5 4 C3.35 4.66 1.7 5.32 0 6 C0 4.02 0 2.04 0 0 Z M1 2 C2 4 2 4 2 4 Z M5 2 C6 4 6 4 6 4 Z " fill="#000000" transform="translate(584,86)"/>
<path d="M0 0 C3.63 0 7.26 0 11 0 C11.33 0.99 11.66 1.98 12 3 C7.45194365 3.17835515 4.1205746 2.99785435 0 1 C0 0.67 0 0.34 0 0 Z " fill="#000000" transform="translate(878,996)"/>
<path d="M0 0 C0.33 1.32 0.66 2.64 1 4 C1.99 3.67 2.98 3.34 4 3 C4.33 4.98 4.66 6.96 5 9 C4.01 9.33 3.02 9.66 2 10 C2 8.68 2 7.36 2 6 C0.68 5.67 -0.64 5.34 -2 5 C-2 3.68 -2 2.36 -2 1 C-1.34 0.67 -0.68 0.34 0 0 Z " fill="#000000" transform="translate(132,963)"/>
<path d="M0 0 C0.66 0.33 1.32 0.66 2 1 C1.34 4.3 0.68 7.6 0 11 C-0.66 11 -1.32 11 -2 11 C-2 7.7 -2 4.4 -2 1 C-1.34 0.67 -0.68 0.34 0 0 Z " fill="#000000" transform="translate(466,441)"/>
<path d="M0 0 C0.66 0 1.32 0 2 0 C2 1.32 2 2.64 2 4 C2.99 4 3.98 4 5 4 C5.33 5.98 5.66 7.96 6 10 C5.01 10 4.02 10 3 10 C3 8.68 3 7.36 3 6 C2.01 6.33 1.02 6.66 0 7 C0 4.69 0 2.38 0 0 Z " fill="#000000" transform="translate(134,955)"/>
<path d="M0 0 C0.66 0 1.32 0 2 0 C2 1.32 2 2.64 2 4 C3.32 4 4.64 4 6 4 C6 4.99 6 5.98 6 7 C4.02 7 2.04 7 0 7 C0 4.69 0 2.38 0 0 Z " fill="#000000" transform="translate(117,992)"/>
<path d="M0 0 C0.33 0 0.66 0 1 0 C1.33 2.31 1.66 4.62 2 7 C1.01 7.33 0.02 7.66 -1 8 C-1 7.34 -1 6.68 -1 6 C-1.66 6 -2.32 6 -3 6 C-3.33 6.66 -3.66 7.32 -4 8 C-4 5.69 -4 3.38 -4 1 C-3.34 1 -2.68 1 -2 1 C-2 1.66 -2 2.32 -2 3 C-1.34 3 -0.68 3 0 3 C0 2.01 0 1.02 0 0 Z M-3 3 C-2 5 -2 5 -2 5 Z " fill="#000000" transform="translate(406,631)"/>
<path d="M0 0 C2 2 2 2 2.125 4.625 C2.08375 5.40875 2.0425 6.1925 2 7 C1.01 7 0.02 7 -1 7 C-1 6.34 -1 5.68 -1 5 C-1.66 5 -2.32 5 -3 5 C-3.33 5.66 -3.66 6.32 -4 7 C-4.33 5.02 -4.66 3.04 -5 1 C-2.525 1.495 -2.525 1.495 0 2 C0 1.34 0 0.68 0 0 Z M-1 3 C0 5 0 5 0 5 Z " fill="#000000" transform="translate(549,204)"/>
<path d="M0 0 C2.31 0 4.62 0 7 0 C7 0.66 7 1.32 7 2 C5.68 2 4.36 2 3 2 C3 3.32 3 4.64 3 6 C2.01 6 1.02 6 0 6 C0 4.02 0 2.04 0 0 Z " fill="#000000" transform="translate(408,19)"/>
<path d="M0 0 C0.66 0.33 1.32 0.66 2 1 C2 2.32 2 3.64 2 5 C2.66 5 3.32 5 4 5 C4 5.66 4 6.32 4 7 C2.35 7.33 0.7 7.66 -1 8 C-1.04241723 5.66705225 -1.04092937 3.33297433 -1 1 C-0.67 0.67 -0.34 0.34 0 0 Z " fill="#000000" transform="translate(412,601)"/>
<path d="M0 0 C0.33 0.66 0.66 1.32 1 2 C1.66 2 2.32 2 3 2 C3.33 1.34 3.66 0.68 4 0 C4.33 1.98 4.66 3.96 5 6 C4.01 6.33 3.02 6.66 2 7 C2 6.01 2 5.02 2 4 C1.34 4 0.68 4 0 4 C-0.33 4.99 -0.66 5.98 -1 7 C-1.04254356 5.00045254 -1.04080783 2.99958364 -1 1 C-0.67 0.67 -0.34 0.34 0 0 Z " fill="#000000" transform="translate(596,56)"/>
<path d="M0 0 C1.65 0 3.3 0 5 0 C4.67 0.99 4.34 1.98 4 3 C3.34 2.67 2.68 2.34 2 2 C2.33 3.98 2.66 5.96 3 8 C2.01 7.67 1.02 7.34 0 7 C0 4.69 0 2.38 0 0 Z " fill="#000000" transform="translate(884,1004)"/>
<path d="M0 0 C0 1.98 0 3.96 0 6 C-0.99 6 -1.98 6 -3 6 C-3 5.34 -3 4.68 -3 4 C-3.99 4.33 -4.98 4.66 -6 5 C-5.6875 3.0625 -5.6875 3.0625 -5 1 C-2 0 -2 0 0 0 Z M-3 2 C-3 2.66 -3 3.32 -3 4 C-2.34 4 -1.68 4 -1 4 C-1 3.34 -1 2.68 -1 2 C-1.66 2 -2.32 2 -3 2 Z " fill="#000000" transform="translate(571,146)"/>
<path d="M0 0 C0.66 0.33 1.32 0.66 2 1 C2 2.65 2 4.3 2 6 C3.32 6.33 4.64 6.66 6 7 C3.69 7 1.38 7 -1 7 C-1.04254356 5.00045254 -1.04080783 2.99958364 -1 1 C-0.67 0.67 -0.34 0.34 0 0 Z " fill="#000000" transform="translate(517,103)"/>
<path d="M0 0 C0.99 0 1.98 0 3 0 C3 1.32 3 2.64 3 4 C3.66 4 4.32 4 5 4 C5 4.66 5 5.32 5 6 C3.35 6 1.7 6 0 6 C0 4.02 0 2.04 0 0 Z " fill="#000000" transform="translate(604,26)"/>
<path d="M0 0 C0.66 0.33 1.32 0.66 2 1 C2 3.31 2 5.62 2 8 C1.01 8 0.02 8 -1 8 C-1.04241723 5.66705225 -1.04092937 3.33297433 -1 1 C-0.67 0.67 -0.34 0.34 0 0 Z " fill="#000000" transform="translate(423,25)"/>
<path d="M0 0 C2 2 2 2 2.1953125 4.1640625 C2.16050781 5.38222656 2.16050781 5.38222656 2.125 6.625 C2.10695313 7.44226563 2.08890625 8.25953125 2.0703125 9.1015625 C2.04710937 9.72804688 2.02390625 10.35453125 2 11 C1.01 11 0.02 11 -1 11 C-1.0270043 9.54176788 -1.04639787 8.08339325 -1.0625 6.625 C-1.07410156 5.81289063 -1.08570313 5.00078125 -1.09765625 4.1640625 C-1 2 -1 2 0 0 Z " fill="#000000" transform="translate(393,668)"/>
<path d="M0 0 C2.09350689 3.4019487 2.17942163 6.05272412 2 10 C0.68 8.68 -0.64 7.36 -2 6 C-1.34 4.02 -0.68 2.04 0 0 Z M0 4 C1 7 1 7 1 7 Z " fill="#000000" transform="translate(514,126)"/>
<path d="M0 0 C1.98 0 3.96 0 6 0 C6.33 0.99 6.66 1.98 7 3 C4.69 3 2.38 3 0 3 C0 2.01 0 1.02 0 0 Z " fill="#000000" transform="translate(440,74)"/>
<path d="M0 0 C0.33 0 0.66 0 1 0 C1 2.31 1 4.62 1 7 C0.01 7 -0.98 7 -2 7 C-2 6.01 -2 5.02 -2 4 C-2.66 3.67 -3.32 3.34 -4 3 C-2.68 2.67 -1.36 2.34 0 2 C0 1.34 0 0.68 0 0 Z " fill="#000000" transform="translate(397,661)"/>
<path d="M0 0 C2.97 0 5.94 0 9 0 C8.01 0.495 8.01 0.495 7 1 C6.67 1.66 6.34 2.32 6 3 C4.02 3 2.04 3 0 3 C0 2.01 0 1.02 0 0 Z " fill="#000000" transform="translate(143,936)"/>
<path d="M0 0 C0.33 0 0.66 0 1 0 C1 3.96 1 7.92 1 12 C0.34 12 -0.32 12 -1 12 C-1.02712066 10.56260487 -1.04645067 9.12506137 -1.0625 7.6875 C-1.07410156 6.88699219 -1.08570313 6.08648437 -1.09765625 5.26171875 C-1 3 -1 3 0 0 Z " fill="#000000" transform="translate(467,449)"/>
<path d="M0 0 C0.33 0 0.66 0 1 0 C1 3.63 1 7.26 1 11 C0.34 11 -0.32 11 -1 11 C-1.0270043 9.54176788 -1.04639787 8.08339325 -1.0625 6.625 C-1.07410156 5.81289062 -1.08570313 5.00078125 -1.09765625 4.1640625 C-1 2 -1 2 0 0 Z " fill="#000000" transform="translate(563,163)"/>
<path d="M0 0 C0.66 0 1.32 0 2 0 C2 0.99 2 1.98 2 3 C2.66 3 3.32 3 4 3 C4.33 2.34 4.66 1.68 5 1 C4.67 2.32 4.34 3.64 4 5 C3.01 5 2.02 5 1 5 C0.67 5.66 0.34 6.32 0 7 C0 4.69 0 2.38 0 0 Z " fill="#000000" transform="translate(575,115)"/>
<path d="M0 0 C2.97 0.33 5.94 0.66 9 1 C9 1.66 9 2.32 9 3 C2.25 3.125 2.25 3.125 0 2 C0 1.34 0 0.68 0 0 Z " fill="#000000" transform="translate(876,892)"/>
<path d="M0 0 C0.66 0 1.32 0 2 0 C2 2.97 2 5.94 2 9 C1.01 9.495 1.01 9.495 0 10 C0 6.7 0 3.4 0 0 Z " fill="#000000" transform="translate(388,669)"/>
<path d="M0 0 C0.66 0 1.32 0 2 0 C2 1.32 2 2.64 2 4 C2.66 4.33 3.32 4.66 4 5 C3.01 5.33 2.02 5.66 1 6 C1 6.66 1 7.32 1 8 C0.34 7.67 -0.32 7.34 -1 7 C-0.67 4.69 -0.34 2.38 0 0 Z " fill="#000000" transform="translate(555,174)"/>
<path d="M0 0 C0.66 0 1.32 0 2 0 C2 2.97 2 5.94 2 9 C1.01 9.495 1.01 9.495 0 10 C0 6.7 0 3.4 0 0 Z " fill="#000000" transform="translate(558,164)"/>
<path d="M0 0 C0.99 0.33 1.98 0.66 3 1 C3 3.31 3 5.62 3 8 C2.34 8 1.68 8 1 8 C-0.35439668 5.29120665 -0.06501451 2.99066732 0 0 Z " fill="#000000" transform="translate(509,119)"/>
<path d="M0 0 C1.32 0.33 2.64 0.66 4 1 C3.01 2.485 3.01 2.485 2 4 C2 4.99 2 5.98 2 7 C1.34 7 0.68 7 0 7 C0 4.69 0 2.38 0 0 Z " fill="#000000" transform="translate(391,661)"/>
<path d="M0 0 C0.99 0 1.98 0 3 0 C3 0.99 3 1.98 3 3 C3.66 3.33 4.32 3.66 5 4 C4.01 4.33 3.02 4.66 2 5 C2 5.66 2 6.32 2 7 C1.34 6.67 0.68 6.34 0 6 C0 4.02 0 2.04 0 0 Z " fill="#000000" transform="translate(431,542)"/>
<path d="M0 0 C0.33 0 0.66 0 1 0 C1 2.31 1 4.62 1 7 C0.01 6.67 -0.98 6.34 -2 6 C-1.67 5.34 -1.34 4.68 -1 4 C-1.66 3.67 -2.32 3.34 -3 3 C-2.01 2.67 -1.02 2.34 0 2 C0 1.34 0 0.68 0 0 Z " fill="#000000" transform="translate(470,442)"/>
<path d="M0 0 C0.66 0 1.32 0 2 0 C2 2.31 2 4.62 2 7 C1.01 7 0.02 7 -1 7 C-0.67 4.69 -0.34 2.38 0 0 Z " fill="#000000" transform="translate(559,175)"/>
<path d="M0 0 C0.66 0 1.32 0 2 0 C2 2.31 2 4.62 2 7 C1.34 7 0.68 7 0 7 C0 4.69 0 2.38 0 0 Z " fill="#000000" transform="translate(137,947)"/>
<path d="M0 0 C0 1.98 0 3.96 0 6 C-0.99 6 -1.98 6 -3 6 C-3 4.35 -3 2.7 -3 1 C-1 0 -1 0 0 0 Z " fill="#000000" transform="translate(521,286)"/>
<path d="M0 0 C0.66 0 1.32 0 2 0 C2 2.31 2 4.62 2 7 C1.34 7 0.68 7 0 7 C0 4.69 0 2.38 0 0 Z " fill="#000000" transform="translate(472,130)"/>
<path d="M0 0 C1.32 0 2.64 0 4 0 C4 0.99 4 1.98 4 3 C2.68 3 1.36 3 0 3 C0 2.01 0 1.02 0 0 Z " fill="#000000" transform="translate(890,1000)"/>
<path d="M0 0 C0.66 0.33 1.32 0.66 2 1 C2 2.65 2 4.3 2 6 C1.01 5.67 0.02 5.34 -1 5 C-0.67 3.35 -0.34 1.7 0 0 Z " fill="#000000" transform="translate(881,998)"/>
<path d="M0 0 C0.66 0 1.32 0 2 0 C2 1.98 2 3.96 2 6 C1.34 6 0.68 6 0 6 C0 4.02 0 2.04 0 0 Z " fill="#000000" transform="translate(140,940)"/>
<path d="M0 0 C0.99 0 1.98 0 3 0 C3 1.32 3 2.64 3 4 C2.01 4 1.02 4 0 4 C0 2.68 0 1.36 0 0 Z " fill="#000000" transform="translate(465,134)"/>
<path d="M0 0 C0.66 0 1.32 0 2 0 C2 1.98 2 3.96 2 6 C1.34 6 0.68 6 0 6 C0 4.02 0 2.04 0 0 Z " fill="#000000" transform="translate(517,123)"/>
<path d="M0 0 C0.99 0 1.98 0 3 0 C3 1.32 3 2.64 3 4 C1.68 3.34 0.36 2.68 -1 2 C-0.67 1.34 -0.34 0.68 0 0 Z " fill="#000000" transform="translate(381,691)"/>
<path d="M0 0 C0.99 0.33 1.98 0.66 3 1 C3 1.99 3 2.98 3 4 C2.01 4 1.02 4 0 4 C0 2.68 0 1.36 0 0 Z " fill="#000000" transform="translate(392,687)"/>
<path d="M0 0 C0.33 0 0.66 0 1 0 C1 2.31 1 4.62 1 7 C0.34 6.67 -0.32 6.34 -1 6 C-1.042721 4.33388095 -1.04063832 2.66617115 -1 1 C-0.67 0.67 -0.34 0.34 0 0 Z " fill="#000000" transform="translate(417,602)"/>
<path d="M0 0 C1.32 0.33 2.64 0.66 4 1 C4 1.99 4 2.98 4 4 C3.01 4 2.02 4 1 4 C0.67 2.68 0.34 1.36 0 0 Z " fill="#000000" transform="translate(462,453)"/>
<path d="M0 0 C0.66 0 1.32 0 2 0 C2 2.31 2 4.62 2 7 C0 5 0 5 -0.125 2.375 C-0.08375 1.59125 -0.0425 0.8075 0 0 Z " fill="#000000" transform="translate(609,27)"/>
<path d="M0 0 C0.99 0 1.98 0 3 0 C3 1.32 3 2.64 3 4 C2.01 4 1.02 4 0 4 C0 2.68 0 1.36 0 0 Z " fill="#000000" transform="translate(398,0)"/>
<path d="M0 0 C0.99 0 1.98 0 3 0 C3 1.65 3 3.3 3 5 C2.34 4.67 1.68 4.34 1 4 C0.375 1.9375 0.375 1.9375 0 0 Z " fill="#000000" transform="translate(869,955)"/>
<path d="M0 0 C1.32 0 2.64 0 4 0 C4 0.66 4 1.32 4 2 C2.68 2.33 1.36 2.66 0 3 C0 2.01 0 1.02 0 0 Z " fill="#000000" transform="translate(587,74)"/>
<path d="M0 0 C1.65 0 3.3 0 5 0 C5 0.66 5 1.32 5 2 C3.35 1.67 1.7 1.34 0 1 C0 0.67 0 0.34 0 0 Z " fill="#000000" transform="translate(941,884)"/>
<path d="M0 0 C0.66 0 1.32 0 2 0 C2 1.65 2 3.3 2 5 C1.01 5.495 1.01 5.495 0 6 C0 4.02 0 2.04 0 0 Z " fill="#000000" transform="translate(489,384)"/>
<path d="M0 0 C1.32 0 2.64 0 4 0 C3.67 0.99 3.34 1.98 3 3 C2.34 3 1.68 3 1 3 C0.67 2.01 0.34 1.02 0 0 Z " fill="#000000" transform="translate(468,138)"/>
<path d="M0 0 C0.66 0 1.32 0 2 0 C2.33 1.32 2.66 2.64 3 4 C2.01 4 1.02 4 0 4 C0 2.68 0 1.36 0 0 Z " fill="#000000" transform="translate(618,0)"/>
<path d="M0 0 C0.99 0 1.98 0 3 0 C3 0.66 3 1.32 3 2 C2.01 2.33 1.02 2.66 0 3 C0 2.01 0 1.02 0 0 Z " fill="#000000" transform="translate(121,1009)"/>
<path d="M0 0 C0.66 0.66 1.32 1.32 2 2 C1.67 2.99 1.34 3.98 1 5 C0.67 3.35 0.34 1.7 0 0 Z " fill="#000000" transform="translate(901,1019)"/>
<path d="M0 0 C0.66 0 1.32 0 2 0 C1.67 0.99 1.34 1.98 1 3 C0.34 3 -0.32 3 -1 3 C-0.67 2.01 -0.34 1.02 0 0 Z " fill="#000000" transform="translate(419,579)"/>
<path d="M0 0 C0.99 0 1.98 0 3 0 C2.67 0.99 2.34 1.98 2 3 C1.34 3 0.68 3 0 3 C0 2.01 0 1.02 0 0 Z " fill="#000000" transform="translate(505,339)"/>
<path d="M0 0 C0.66 0 1.32 0 2 0 C2 1.32 2 2.64 2 4 C1.34 3.67 0.68 3.34 0 3 C0 2.01 0 1.02 0 0 Z " fill="#000000" transform="translate(876,895)"/>
<path d="M0 0 C0 0.99 0 1.98 0 3 C-0.99 3.495 -0.99 3.495 -2 4 C-1.34 2.68 -0.68 1.36 0 0 Z " fill="#000000" transform="translate(141,882)"/>
<path d="M0 0 C0.66 0 1.32 0 2 0 C1.67 0.99 1.34 1.98 1 3 C0.34 2.67 -0.32 2.34 -1 2 C-0.67 1.34 -0.34 0.68 0 0 Z " fill="#000000" transform="translate(410,629)"/>
<path d="M0 0 C0.99 0.33 1.98 0.66 3 1 C2.34 1.66 1.68 2.32 1 3 C0.67 2.01 0.34 1.02 0 0 Z " fill="#000000" transform="translate(445,501)"/>
<path d="M0 0 C1.32 0.33 2.64 0.66 4 1 C3.34 1 2.68 1 2 1 C1.67 1.66 1.34 2.32 1 3 C0.67 2.01 0.34 1.02 0 0 Z " fill="#000000" transform="translate(467,431)"/>
<path d="M0 0 C0.33 0.99 0.66 1.98 1 3 C-0.32 2.67 -1.64 2.34 -3 2 C-2.01 2 -1.02 2 0 2 C0 1.34 0 0.68 0 0 Z " fill="#000000" transform="translate(484,409)"/>
<path d="M0 0 C0.99 0.33 1.98 0.66 3 1 C3 1.66 3 2.32 3 3 C2.34 3 1.68 3 1 3 C0.67 2.01 0.34 1.02 0 0 Z " fill="#000000" transform="translate(515,293)"/>
<path d="M0 0 C0.99 0.33 1.98 0.66 3 1 C3 1.66 3 2.32 3 3 C2.34 3 1.68 3 1 3 C0.67 2.01 0.34 1.02 0 0 Z " fill="#000000" transform="translate(568,133)"/>
<path d="M0 0 C0.33 1.32 0.66 2.64 1 4 C0.34 3.01 -0.32 2.02 -1 1 C-0.67 0.67 -0.34 0.34 0 0 Z " fill="#000000" transform="translate(437,545)"/>
<path d="M0 0 C0.99 0.495 0.99 0.495 2 1 C2 1.66 2 2.32 2 3 C1.34 3 0.68 3 0 3 C0 2.01 0 1.02 0 0 Z " fill="#000000" transform="translate(464,138)"/>
<path d="M0 0 C0.33 1.32 0.66 2.64 1 4 C0.34 3.34 -0.32 2.68 -1 2 C-0.67 1.34 -0.34 0.68 0 0 Z " fill="#000000" transform="translate(431,64)"/>
<path d="M0 0 C0.66 0 1.32 0 2 0 C2 0.66 2 1.32 2 2 C1.34 2 0.68 2 0 2 C0 1.34 0 0.68 0 0 Z " fill="#000000" transform="translate(130,961)"/>
<path d="M0 0 C0.66 0 1.32 0 2 0 C2 0.66 2 1.32 2 2 C1.34 2 0.68 2 0 2 C0 1.34 0 0.68 0 0 Z " fill="#000000" transform="translate(780,880)"/>
<path d="M0 0 C0 3 0 3 0 3 Z " fill="#000000" transform="translate(564,683)"/>
<path d="M0 0 C0.66 0 1.32 0 2 0 C2 0.66 2 1.32 2 2 C1.34 2 0.68 2 0 2 C0 1.34 0 0.68 0 0 Z " fill="#000000" transform="translate(390,673)"/>
<path d="M0 0 C0.99 0 1.98 0 3 0 C2.67 0.66 2.34 1.32 2 2 C1.34 1.34 0.68 0.68 0 0 Z " fill="#000000" transform="translate(395,650)"/>
<path d="M0 0 C0.99 0 1.98 0 3 0 C2.67 0.66 2.34 1.32 2 2 C1.34 1.34 0.68 0.68 0 0 Z " fill="#000000" transform="translate(448,490)"/>
<path d="M0 0 C0 3 0 3 0 3 Z " fill="#000000" transform="translate(460,477)"/>
<path d="M0 0 C0.66 0 1.32 0 2 0 C2 0.66 2 1.32 2 2 C1.34 2 0.68 2 0 2 C0 1.34 0 0.68 0 0 Z " fill="#000000" transform="translate(487,386)"/>
<path d="M0 0 C0.66 0.66 1.32 1.32 2 2 C1.01 1.67 0.02 1.34 -1 1 C-0.67 0.67 -0.34 0.34 0 0 Z " fill="#000000" transform="translate(502,351)"/>
<path d="M0 0 C0.66 0 1.32 0 2 0 C2 0.66 2 1.32 2 2 C1.34 2 0.68 2 0 2 C0 1.34 0 0.68 0 0 Z " fill="#000000" transform="translate(560,168)"/>
<path d="M0 0 C0.99 0.495 0.99 0.495 2 1 C1.67 1.66 1.34 2.32 1 3 C0.67 2.01 0.34 1.02 0 0 Z " fill="#000000" transform="translate(565,144)"/>
<path d="M0 0 C0.99 0 1.98 0 3 0 C2.67 0.66 2.34 1.32 2 2 C1.34 1.34 0.68 0.68 0 0 Z " fill="#000000" transform="translate(466,141)"/>
<path d="M0 0 C0.99 0.33 1.98 0.66 3 1 C2.01 1 1.02 1 0 1 C0 0.67 0 0.34 0 0 Z " fill="#000000" transform="translate(439,87)"/>
<path d="M0 0 C3 1 3 1 3 1 Z " fill="#000000" transform="translate(898,1023)"/>
<path d="M0 0 C0.33 0.66 0.66 1.32 1 2 C0.34 1.67 -0.32 1.34 -1 1 C-0.67 0.67 -0.34 0.34 0 0 Z " fill="#000000" transform="translate(146,940)"/>
<path d="M0 0 C0.66 0 1.32 0 2 0 C1.67 0.66 1.34 1.32 1 2 C0.67 1.34 0.34 0.68 0 0 Z " fill="#000000" transform="translate(448,499)"/>
<path d="" fill="#000000" transform="translate(0,0)"/>
<path d="M0 0 C0.66 0.66 1.32 1.32 2 2 C1.34 2 0.68 2 0 2 C0 1.34 0 0.68 0 0 Z " fill="#000000" transform="translate(555,191)"/>
<path d="M0 0 C0.66 0 1.32 0 2 0 C1.67 0.66 1.34 1.32 1 2 C0.67 1.34 0.34 0.68 0 0 Z " fill="#000000" transform="translate(592,63)"/>
<path d="" fill="#000000" transform="translate(0,0)"/>
<path d="" fill="#000000" transform="translate(0,0)"/>
<path d="M0 0 C2 1 2 1 2 1 Z " fill="#000000" transform="translate(890,1023)"/>
<path d="" fill="#000000" transform="translate(0,0)"/>
<path d="" fill="#000000" transform="translate(0,0)"/>
<path d="M0 0 C2 1 2 1 2 1 Z " fill="#000000" transform="translate(725,921)"/>
<path d="M0 0 C2 1 2 1 2 1 Z " fill="#000000" transform="translate(109,913)"/>
<path d="" fill="#000000" transform="translate(0,0)"/>
<path d="" fill="#000000" transform="translate(0,0)"/>
<path d="M0 0 C2 1 2 1 2 1 Z " fill="#000000" transform="translate(873,895)"/>
<path d="M0 0 C2 1 2 1 2 1 Z " fill="#000000" transform="translate(1003,884)"/>
<path d="" fill="#000000" transform="translate(0,0)"/>
<path d="" fill="#000000" transform="translate(0,0)"/>
<path d="" fill="#000000" transform="translate(0,0)"/>
<path d="" fill="#000000" transform="translate(0,0)"/>
<path d="" fill="#000000" transform="translate(0,0)"/>
<path d="M0 0 C2 1 2 1 2 1 Z " fill="#000000" transform="translate(522,294)"/>
<path d="" fill="#000000" transform="translate(0,0)"/>
<path d="" fill="#000000" transform="translate(0,0)"/>
<path d="" fill="#000000" transform="translate(0,0)"/>
<path d="" fill="#000000" transform="translate(0,0)"/>
<path d="" fill="#000000" transform="translate(0,0)"/>
<path d="" fill="#000000" transform="translate(0,0)"/>
<path d="" fill="#000000" transform="translate(0,0)"/>
<path d="" fill="#000000" transform="translate(0,0)"/>
<path d="" fill="#000000" transform="translate(0,0)"/>
<path d="" fill="#000000" transform="translate(0,0)"/>
<path d="" fill="#000000" transform="translate(0,0)"/>
<path d="" fill="#000000" transform="translate(0,0)"/>
<path d="" fill="#000000" transform="translate(0,0)"/>
<path d="" fill="#000000" transform="translate(0,0)"/>
<path d="" fill="#000000" transform="translate(0,0)"/>
<path d="" fill="#000000" transform="translate(0,0)"/>
<path d="" fill="#000000" transform="translate(0,0)"/>
<path d="" fill="#000000" transform="translate(0,0)"/>
<path d="" fill="#000000" transform="translate(0,0)"/>
<path d="" fill="#000000" transform="translate(0,0)"/>
<path d="" fill="#000000" transform="translate(0,0)"/>
<path d="" fill="#000000" transform="translate(0,0)"/>
<path d="" fill="#000000" transform="translate(0,0)"/>
<path d="" fill="#000000" transform="translate(0,0)"/>
<path d="" fill="#000000" transform="translate(0,0)"/>
<path d="" fill="#000000" transform="translate(0,0)"/>
<path d="" fill="#000000" transform="translate(0,0)"/>
<path d="" fill="#000000" transform="translate(0,0)"/>
<path d="" fill="#000000" transform="translate(0,0)"/>
<path d="" fill="#000000" transform="translate(0,0)"/>
<path d="" fill="#000000" transform="translate(0,0)"/>
<path d="" fill="#000000" transform="translate(0,0)"/>
<path d="" fill="#000000" transform="translate(0,0)"/>
<path d="" fill="#000000" transform="translate(0,0)"/>
<path d="" fill="#000000" transform="translate(0,0)"/>
<path d="" fill="#000000" transform="translate(0,0)"/>
<path d="" fill="#000000" transform="translate(0,0)"/>
<path d="" fill="#000000" transform="translate(0,0)"/>
<path d="" fill="#000000" transform="translate(0,0)"/>
<path d="" fill="#000000" transform="translate(0,0)"/>
<path d="" fill="#000000" transform="translate(0,0)"/>
<path d="" fill="#000000" transform="translate(0,0)"/>
</svg>
