<?xml version="1.0" standalone="no"?>
<!DOCTYPE svg PUBLIC "-//W3C//DTD SVG 20010904//EN"
 "http://www.w3.org/TR/2001/REC-SVG-20010904/DTD/svg10.dtd">
<svg version="1.0" xmlns="http://www.w3.org/2000/svg"
 width="200.000000pt" height="200.000000pt" viewBox="0 0 200.000000 200.000000"
 preserveAspectRatio="xMidYMid meet">
<metadata>
Created by potrace 1.16, written by Peter Selinger 2001-2019
</metadata>
<g transform="translate(0.000000,200.000000) scale(0.100000,-0.100000)"
fill="#000000" stroke="none">
<path d="M947 1778 c-64 -87 -907 -1509 -907 -1531 0 -13 8 -31 18 -40 17 -16
97 -17 944 -17 883 0 926 1 941 18 10 10 17 29 17 41 0 20 -847 1448 -907
1529 -17 23 -32 32 -53 32 -21 0 -36 -9 -53 -32z m443 -799 c212 -353 386
-648 388 -655 3 -12 -123 -14 -778 -14 -652 0 -781 2 -778 14 4 18 771 1296
778 1296 3 0 178 -289 390 -641z"/>
</g>
</svg>
